G04 DipTrace 3.0.0.1*
G04 Нижняямаркировка.gbr*
%MOIN*%
G04 #@! TF.FileFunction,Legend,Bot*
G04 #@! TF.Part,Single*
%ADD10C,0.009843*%
%FSLAX26Y26*%
G04*
G70*
G90*
G75*
G01*
G04 BotSilk*
%LPD*%
X1708983Y5908074D2*
D10*
Y5835228D1*
X1618425D1*
Y5908074D1*
X1708983Y6016339D2*
Y5943493D1*
Y6016339D2*
X1618425D1*
Y5943493D2*
Y6016339D1*
X1708983Y5570554D2*
Y5497709D1*
X1618425D1*
Y5570554D1*
X1708983Y5678819D2*
Y5605973D1*
Y5678819D2*
X1618425D1*
Y5605973D2*
Y5678819D1*
X1696483Y5245554D2*
Y5172709D1*
X1605925D1*
Y5245554D1*
X1696483Y5353819D2*
Y5280973D1*
Y5353819D2*
X1605925D1*
Y5280973D2*
Y5353819D1*
X1696483Y4920554D2*
Y4847709D1*
X1605925D1*
Y4920554D1*
X1696483Y5028819D2*
Y4955973D1*
Y5028819D2*
X1605925D1*
Y4955973D2*
Y5028819D1*
X1696483Y4470594D2*
Y4397748D1*
X1605925D1*
Y4470594D1*
X1696483Y4578858D2*
Y4506013D1*
Y4578858D2*
X1605925D1*
Y4506013D2*
Y4578858D1*
X1696483Y4145594D2*
Y4072748D1*
X1605925D1*
Y4145594D1*
X1696483Y4253858D2*
Y4181013D1*
Y4253858D2*
X1605925D1*
Y4181013D2*
Y4253858D1*
X1696483Y3820574D2*
Y3747728D1*
X1605925D1*
Y3820574D1*
X1696483Y3928839D2*
Y3855993D1*
Y3928839D2*
X1605925D1*
Y3855993D2*
Y3928839D1*
X1696483Y3495594D2*
Y3422748D1*
X1605925D1*
Y3495594D1*
X1696483Y3603858D2*
Y3531013D1*
Y3603858D2*
X1605925D1*
Y3531013D2*
Y3603858D1*
X1696463Y3045554D2*
Y2972709D1*
X1605906D1*
Y3045554D1*
X1696463Y3153819D2*
Y3080973D1*
Y3153819D2*
X1605906D1*
Y3080973D2*
Y3153819D1*
X1696483Y2720554D2*
Y2647709D1*
X1605925D1*
Y2720554D1*
X1696483Y2828819D2*
Y2755973D1*
Y2828819D2*
X1605925D1*
Y2755973D2*
Y2828819D1*
X1696483Y2395554D2*
Y2322709D1*
X1605925D1*
Y2395554D1*
X1696483Y2503819D2*
Y2430973D1*
Y2503819D2*
X1605925D1*
Y2430973D2*
Y2503819D1*
X1696483Y2070554D2*
Y1997709D1*
X1605925D1*
Y2070554D1*
X1696483Y2178819D2*
Y2105973D1*
Y2178819D2*
X1605925D1*
Y2105973D2*
Y2178819D1*
X1696483Y1608074D2*
Y1535228D1*
X1605925D1*
Y1608074D1*
X1696483Y1716339D2*
Y1643493D1*
Y1716339D2*
X1605925D1*
Y1643493D2*
Y1716339D1*
X1696483Y1270594D2*
Y1197748D1*
X1605925D1*
Y1270594D1*
X1696483Y1378858D2*
Y1306013D1*
Y1378858D2*
X1605925D1*
Y1306013D2*
Y1378858D1*
X1696483Y933074D2*
Y860228D1*
X1605925D1*
Y933074D1*
X1696483Y1041339D2*
Y968493D1*
Y1041339D2*
X1605925D1*
Y968493D2*
Y1041339D1*
X1696483Y595554D2*
Y522709D1*
X1605925D1*
Y595554D1*
X1696483Y703819D2*
Y630973D1*
Y703819D2*
X1605925D1*
Y630973D2*
Y703819D1*
X2105899Y5943501D2*
Y6016346D1*
X2196457D1*
Y5943501D1*
X2105899Y5835236D2*
Y5908082D1*
Y5835236D2*
X2196457D1*
Y5908082D2*
Y5835236D1*
X2105899Y5605981D2*
Y5678827D1*
X2196457D1*
Y5605981D1*
X2105899Y5497717D2*
Y5570562D1*
Y5497717D2*
X2196457D1*
Y5570562D2*
Y5497717D1*
X2105919Y5280981D2*
Y5353827D1*
X2196476D1*
Y5280981D1*
X2105919Y5172717D2*
Y5245562D1*
Y5172717D2*
X2196476D1*
Y5245562D2*
Y5172717D1*
X2118419Y4955981D2*
Y5028827D1*
X2208976D1*
Y4955981D1*
X2118419Y4847717D2*
Y4920562D1*
Y4847717D2*
X2208976D1*
Y4920562D2*
Y4847717D1*
X2118419Y4506020D2*
Y4578866D1*
X2208976D1*
Y4506020D1*
X2118419Y4397756D2*
Y4470602D1*
Y4397756D2*
X2208976D1*
Y4470602D2*
Y4397756D1*
X2118419Y4181020D2*
Y4253866D1*
X2208976D1*
Y4181020D1*
X2118419Y4072756D2*
Y4145602D1*
Y4072756D2*
X2208976D1*
Y4145602D2*
Y4072756D1*
X2118419Y3856020D2*
Y3928866D1*
X2208976D1*
Y3856020D1*
X2118419Y3747756D2*
Y3820602D1*
Y3747756D2*
X2208976D1*
Y3820602D2*
Y3747756D1*
X2118419Y3531020D2*
Y3603866D1*
X2208976D1*
Y3531020D1*
X2118419Y3422756D2*
Y3495602D1*
Y3422756D2*
X2208976D1*
Y3495602D2*
Y3422756D1*
X2118419Y3080981D2*
Y3153827D1*
X2208976D1*
Y3080981D1*
X2118419Y2972717D2*
Y3045562D1*
Y2972717D2*
X2208976D1*
Y3045562D2*
Y2972717D1*
X2118419Y2755981D2*
Y2828827D1*
X2208976D1*
Y2755981D1*
X2118419Y2647717D2*
Y2720562D1*
Y2647717D2*
X2208976D1*
Y2720562D2*
Y2647717D1*
X2118419Y2430981D2*
Y2503827D1*
X2208976D1*
Y2430981D1*
X2118419Y2322717D2*
Y2395562D1*
Y2322717D2*
X2208976D1*
Y2395562D2*
Y2322717D1*
X2118419Y2105981D2*
Y2178827D1*
X2208976D1*
Y2105981D1*
X2118419Y1997717D2*
Y2070562D1*
Y1997717D2*
X2208976D1*
Y2070562D2*
Y1997717D1*
X2118419Y1643501D2*
Y1716346D1*
X2208976D1*
Y1643501D1*
X2118419Y1535236D2*
Y1608082D1*
Y1535236D2*
X2208976D1*
Y1608082D2*
Y1535236D1*
X2118419Y1306020D2*
Y1378866D1*
X2208976D1*
Y1306020D1*
X2118419Y1197756D2*
Y1270602D1*
Y1197756D2*
X2208976D1*
Y1270602D2*
Y1197756D1*
X2118419Y968501D2*
Y1041346D1*
X2208976D1*
Y968501D1*
X2118419Y860236D2*
Y933082D1*
Y860236D2*
X2208976D1*
Y933082D2*
Y860236D1*
X2118419Y630981D2*
Y703827D1*
X2208976D1*
Y630981D1*
X2118419Y522717D2*
Y595562D1*
Y522717D2*
X2208976D1*
Y595562D2*
Y522717D1*
X2490227Y4833727D2*
Y4760877D1*
X2399676D1*
Y4833727D1*
X2490227Y4945916D2*
Y4873066D1*
Y4945916D2*
X2399676D1*
Y4873066D2*
Y4945916D1*
X2477727Y1970586D2*
Y1897736D1*
X2387176D1*
Y1970586D1*
X2477727Y2082776D2*
Y2009926D1*
Y2082776D2*
X2387176D1*
Y2009926D2*
Y2082776D1*
X3807641Y2817168D2*
X3734795D1*
Y2907726D1*
X3807641D1*
X3915906Y2817168D2*
X3843060D1*
X3915906D2*
Y2907726D1*
X3843060D2*
X3915906D1*
X3807641Y2061445D2*
X3734795D1*
Y2152003D1*
X3807641D1*
X3915906Y2061445D2*
X3843060D1*
X3915906D2*
Y2152003D1*
X3843060D2*
X3915906D1*
X4143235Y721460D2*
Y648614D1*
X4052677D1*
Y721460D1*
X4143235Y829724D2*
Y756879D1*
Y829724D2*
X4052677D1*
Y756879D2*
Y829724D1*
X3843068Y3176483D2*
X3915913D1*
Y3085925D1*
X3843068D1*
X3734803Y3176483D2*
X3807649D1*
X3734803D2*
Y3085925D1*
X3807649D2*
X3734803D1*
X3257451Y4719951D2*
X3917451D1*
Y3849951D1*
X3257451D1*
Y4719951D1*
X3926669Y2687248D2*
X3968008D1*
Y2234472D1*
X3771157Y2687248D2*
Y2234472D1*
X3926669D2*
X3968008D1*
X3771157Y2687248D2*
X3812496D1*
X3771157Y2234472D2*
X3812496D1*
X2249685Y5945457D2*
Y6018307D1*
X2340236D1*
Y5945457D1*
X2249685Y5833268D2*
Y5906118D1*
Y5833268D2*
X2340236D1*
Y5906118D2*
Y5833268D1*
X2249685Y3082937D2*
Y3155787D1*
X2340236D1*
Y3082937D1*
X2249685Y2970748D2*
Y3043598D1*
Y2970748D2*
X2340236D1*
Y3043598D2*
Y2970748D1*
Y5683086D2*
Y5610236D1*
X2249685D1*
Y5683086D1*
X2340236Y5795276D2*
Y5722426D1*
Y5795276D2*
X2249685D1*
Y5722426D2*
Y5795276D1*
X2340236Y2833086D2*
Y2760236D1*
X2249685D1*
Y2833086D1*
X2340236Y2945276D2*
Y2872426D1*
Y2945276D2*
X2249685D1*
Y2872426D2*
Y2945276D1*
Y5282937D2*
Y5355787D1*
X2340236D1*
Y5282937D1*
X2249685Y5170748D2*
Y5243598D1*
Y5170748D2*
X2340236D1*
Y5243598D2*
Y5170748D1*
X2249685Y2432937D2*
Y2505787D1*
X2340236D1*
Y2432937D1*
X2249685Y2320748D2*
Y2393598D1*
Y2320748D2*
X2340236D1*
Y2393598D2*
Y2320748D1*
X2249685Y4957937D2*
Y5030787D1*
X2340236D1*
Y4957937D1*
X2249685Y4845748D2*
Y4918598D1*
Y4845748D2*
X2340236D1*
Y4918598D2*
Y4845748D1*
X2249685Y2107937D2*
Y2180787D1*
X2340236D1*
Y2107937D1*
X2249685Y1995748D2*
Y2068598D1*
Y1995748D2*
X2340236D1*
Y2068598D2*
Y1995748D1*
Y4468637D2*
Y4395787D1*
X2249685D1*
Y4468637D1*
X2340236Y4580827D2*
Y4507977D1*
Y4580827D2*
X2249685D1*
Y4507977D2*
Y4580827D1*
X2340227Y1608086D2*
Y1535236D1*
X2249676D1*
Y1608086D1*
X2340227Y1720276D2*
Y1647426D1*
Y1720276D2*
X2249676D1*
Y1647426D2*
Y1720276D1*
X2340236Y4258086D2*
Y4185236D1*
X2249685D1*
Y4258086D1*
X2340236Y4370276D2*
Y4297426D1*
Y4370276D2*
X2249685D1*
Y4297426D2*
Y4370276D1*
X2340236Y1383086D2*
Y1310236D1*
X2249685D1*
Y1383086D1*
X2340236Y1495276D2*
Y1422426D1*
Y1495276D2*
X2249685D1*
Y1422426D2*
Y1495276D1*
Y3857977D2*
Y3930827D1*
X2340236D1*
Y3857977D1*
X2249685Y3745787D2*
Y3818637D1*
Y3745787D2*
X2340236D1*
Y3818637D2*
Y3745787D1*
X2249685Y970457D2*
Y1043307D1*
X2340236D1*
Y970457D1*
X2249685Y858268D2*
Y931118D1*
Y858268D2*
X2340236D1*
Y931118D2*
Y858268D1*
Y3608086D2*
Y3535236D1*
X2249685D1*
Y3608086D1*
X2340236Y3720276D2*
Y3647426D1*
Y3720276D2*
X2249685D1*
Y3647426D2*
Y3720276D1*
X2340236Y720586D2*
Y647736D1*
X2249685D1*
Y720586D1*
X2340236Y832776D2*
Y759926D1*
Y832776D2*
X2249685D1*
Y759926D2*
Y832776D1*
X2821837Y3698425D2*
X2748987D1*
Y3788976D1*
X2821837D1*
X2934026Y3698425D2*
X2861176D1*
X2934026D2*
Y3788976D1*
X2861176D2*
X2934026D1*
X3955566Y988976D2*
X4028416D1*
Y898425D1*
X3955566D1*
X3843377Y988976D2*
X3916227D1*
X3843377D2*
Y898425D1*
X3916227D2*
X3843377D1*
X3386815Y3051476D2*
X3459665D1*
Y2960925D1*
X3386815D1*
X3274626Y3051476D2*
X3347476D1*
X3274626D2*
Y2960925D1*
X3347476D2*
X3274626D1*
X4327727Y2883086D2*
Y2810236D1*
X4237176D1*
Y2883086D1*
X4327727Y2995276D2*
Y2922426D1*
Y2995276D2*
X4237176D1*
Y2922426D2*
Y2995276D1*
X3149315Y3051476D2*
X3222165D1*
Y2960925D1*
X3149315D1*
X3037126Y3051476D2*
X3109976D1*
X3037126D2*
Y2960925D1*
X3109976D2*
X3037126D1*
X1254646Y5789961D2*
X1569606D1*
Y5947441D1*
X1254646D1*
Y5789961D1*
X1372756Y5908071D2*
Y5829331D1*
Y5868701D2*
X1451496Y5829331D1*
Y5908071D1*
X1372756Y5868701D1*
X1254646Y5452461D2*
X1569606D1*
Y5609941D1*
X1254646D1*
Y5452461D1*
X1372756Y5570571D2*
Y5491831D1*
Y5531201D2*
X1451496Y5491831D1*
Y5570571D1*
X1372756Y5531201D1*
X1254646Y5127461D2*
X1569606D1*
Y5284941D1*
X1254646D1*
Y5127461D1*
X1372756Y5245571D2*
Y5166831D1*
Y5206201D2*
X1451496Y5166831D1*
Y5245571D1*
X1372756Y5206201D1*
X1254646Y4802461D2*
X1569606D1*
Y4959941D1*
X1254646D1*
Y4802461D1*
X1372756Y4920571D2*
Y4841831D1*
Y4881201D2*
X1451496Y4841831D1*
Y4920571D1*
X1372756Y4881201D1*
X1254646Y4364961D2*
X1569606D1*
Y4522441D1*
X1254646D1*
Y4364961D1*
X1372756Y4483071D2*
Y4404331D1*
Y4443701D2*
X1451496Y4404331D1*
Y4483071D1*
X1372756Y4443701D1*
X1254646Y4027461D2*
X1569606D1*
Y4184941D1*
X1254646D1*
Y4027461D1*
X1372756Y4145571D2*
Y4066831D1*
Y4106201D2*
X1451496Y4066831D1*
Y4145571D1*
X1372756Y4106201D1*
X1254646Y3702461D2*
X1569606D1*
Y3859941D1*
X1254646D1*
Y3702461D1*
X1372756Y3820571D2*
Y3741831D1*
Y3781201D2*
X1451496Y3741831D1*
Y3820571D1*
X1372756Y3781201D1*
X1254646Y3377461D2*
X1569606D1*
Y3534941D1*
X1254646D1*
Y3377461D1*
X1372756Y3495571D2*
Y3416831D1*
Y3456201D2*
X1451496Y3416831D1*
Y3495571D1*
X1372756Y3456201D1*
X1254646Y2927461D2*
X1569606D1*
Y3084941D1*
X1254646D1*
Y2927461D1*
X1372756Y3045571D2*
Y2966831D1*
Y3006201D2*
X1451496Y2966831D1*
Y3045571D1*
X1372756Y3006201D1*
X1254646Y2602461D2*
X1569606D1*
Y2759941D1*
X1254646D1*
Y2602461D1*
X1372756Y2720571D2*
Y2641831D1*
Y2681201D2*
X1451496Y2641831D1*
Y2720571D1*
X1372756Y2681201D1*
X1254646Y2277461D2*
X1569606D1*
Y2434941D1*
X1254646D1*
Y2277461D1*
X1372756Y2395571D2*
Y2316831D1*
Y2356201D2*
X1451496Y2316831D1*
Y2395571D1*
X1372756Y2356201D1*
X1254646Y1952461D2*
X1569606D1*
Y2109941D1*
X1254646D1*
Y1952461D1*
X1372756Y2070571D2*
Y1991831D1*
Y2031201D2*
X1451496Y1991831D1*
Y2070571D1*
X1372756Y2031201D1*
X1254646Y1489961D2*
X1569606D1*
Y1647441D1*
X1254646D1*
Y1489961D1*
X1372756Y1608071D2*
Y1529331D1*
Y1568701D2*
X1451496Y1529331D1*
Y1608071D1*
X1372756Y1568701D1*
X1254646Y1152461D2*
X1569606D1*
Y1309941D1*
X1254646D1*
Y1152461D1*
X1372756Y1270571D2*
Y1191831D1*
Y1231201D2*
X1451496Y1191831D1*
Y1270571D1*
X1372756Y1231201D1*
X1254646Y827461D2*
X1569606D1*
Y984941D1*
X1254646D1*
Y827461D1*
X1372756Y945571D2*
Y866831D1*
Y906201D2*
X1451496Y866831D1*
Y945571D1*
X1372756Y906201D1*
X1254646Y477461D2*
X1569606D1*
Y634941D1*
X1254646D1*
Y477461D1*
X1372756Y595571D2*
Y516831D1*
Y556201D2*
X1451496Y516831D1*
Y595571D1*
X1372756Y556201D1*
X1617736Y6054331D2*
Y6133071D1*
X1775217D1*
Y6054331D1*
X1617736D1*
X1684665Y6133071D2*
Y6054331D1*
X1617736Y5704331D2*
Y5783071D1*
X1775217D1*
Y5704331D1*
X1617736D1*
X1684665Y5783071D2*
Y5704331D1*
X1605236Y5379331D2*
Y5458071D1*
X1762717D1*
Y5379331D1*
X1605236D1*
X1672165Y5458071D2*
Y5379331D1*
X1605236Y5054331D2*
Y5133071D1*
X1762717D1*
Y5054331D1*
X1605236D1*
X1672165Y5133071D2*
Y5054331D1*
X1605236Y4604331D2*
Y4683071D1*
X1762717D1*
Y4604331D1*
X1605236D1*
X1672165Y4683071D2*
Y4604331D1*
X1605236Y4279331D2*
Y4358071D1*
X1762717D1*
Y4279331D1*
X1605236D1*
X1672165Y4358071D2*
Y4279331D1*
X1605236Y3954331D2*
Y4033071D1*
X1762717D1*
Y3954331D1*
X1605236D1*
X1672165Y4033071D2*
Y3954331D1*
X1605236Y3629331D2*
Y3708071D1*
X1762717D1*
Y3629331D1*
X1605236D1*
X1672165Y3708071D2*
Y3629331D1*
X1605236Y3179331D2*
Y3258071D1*
X1762717D1*
Y3179331D1*
X1605236D1*
X1672165Y3258071D2*
Y3179331D1*
X1605236Y2854331D2*
Y2933071D1*
X1762717D1*
Y2854331D1*
X1605236D1*
X1672165Y2933071D2*
Y2854331D1*
X1602185Y2529331D2*
Y2608071D1*
X1759665D1*
Y2529331D1*
X1602185D1*
X1669114Y2608071D2*
Y2529331D1*
X1605236Y2204331D2*
Y2283071D1*
X1762717D1*
Y2204331D1*
X1605236D1*
X1672165Y2283071D2*
Y2204331D1*
X1605236Y1741831D2*
Y1820571D1*
X1762717D1*
Y1741831D1*
X1605236D1*
X1672165Y1820571D2*
Y1741831D1*
X1605236Y1404331D2*
Y1483071D1*
X1762717D1*
Y1404331D1*
X1605236D1*
X1672165Y1483071D2*
Y1404331D1*
X1605236Y1066831D2*
Y1145571D1*
X1762717D1*
Y1066831D1*
X1605236D1*
X1672165Y1145571D2*
Y1066831D1*
X1605236Y729331D2*
Y808071D1*
X1762717D1*
Y729331D1*
X1605236D1*
X1672165Y808071D2*
Y729331D1*
X4332441Y3437436D2*
G02X4232440Y3437436I-50001J-94937D01*
G01*
X4332441D1*
X3298676Y5582727D2*
X3371526D1*
Y5492176D1*
X3298676D1*
X3186487Y5582727D2*
X3259337D1*
X3186487D2*
Y5492176D1*
X3259337D2*
X3186487D1*
X3298676Y5701476D2*
X3371526D1*
Y5610925D1*
X3298676D1*
X3186487Y5701476D2*
X3259337D1*
X3186487D2*
Y5610925D1*
X3259337D2*
X3186487D1*
X3221188Y1667128D2*
Y1470274D1*
X3118812Y1667128D2*
Y1470274D1*
X3221188D2*
X3118812D1*
X3189694Y1667128D2*
X3221188D1*
X3150306D2*
X3118812D1*
X3189694D2*
G02X3150306Y1667128I-19694J9D01*
G01*
X3615586Y1598425D2*
X3542736D1*
Y1688976D1*
X3615586D1*
X3727776Y1598425D2*
X3654926D1*
X3727776D2*
Y1688976D1*
X3654926D2*
X3727776D1*
X3615586Y1498425D2*
X3542736D1*
Y1588976D1*
X3615586D1*
X3727776Y1498425D2*
X3654926D1*
X3727776D2*
Y1588976D1*
X3654926D2*
X3727776D1*
X3024328Y1788983D2*
X3097173D1*
Y1698425D1*
X3024328D1*
X2916063Y1788983D2*
X2988909D1*
X2916063D2*
Y1698425D1*
X2988909D2*
X2916063D1*
M02*
