G04 DipTrace 3.0.0.1*
G04 Нижняямаска.gbr*
%MOIN*%
G04 #@! TF.FileFunction,Soldermask,Bot*
G04 #@! TF.Part,Single*
%ADD20C,0.066929*%
%ADD32C,0.074803*%
%ADD35C,0.066929*%
%ADD41C,0.137795*%
%ADD51R,0.086614X0.031496*%
%ADD53R,0.086614X0.086614*%
%ADD54R,0.070866X0.070866*%
%ADD55C,0.125984*%
%ADD57R,0.125984X0.125984*%
%ADD59R,0.047244X0.066929*%
%ADD61R,0.086614X0.106299*%
%ADD63C,0.082677*%
%ADD64R,0.082677X0.082677*%
%ADD65R,0.066929X0.066929*%
%ADD66R,0.086614X0.165354*%
%ADD70C,0.086614*%
%ADD71C,0.070866*%
%ADD72R,0.106299X0.106299*%
%ADD74C,0.106299*%
%ADD76C,0.137795*%
%ADD80C,0.106299*%
%ADD81C,0.086614*%
%ADD83C,0.074803*%
%ADD84R,0.055118X0.07874*%
%ADD86R,0.07874X0.055118*%
%FSLAX26Y26*%
G04*
G70*
G90*
G75*
G01*
G04 BotMask*
%LPD*%
G36*
X1744409Y5815551D2*
X1742444D1*
D1*
X1744409D1*
G37*
G36*
X1701096Y5843119D2*
X1626299D1*
Y5894300D1*
X1701096D1*
Y5843119D1*
G37*
G36*
Y5957287D2*
X1626299D1*
Y6008468D1*
X1701096D1*
Y5957287D1*
G37*
D86*
X1663701Y5868701D3*
Y5982874D3*
G36*
X1744409Y5478031D2*
X1742444D1*
D1*
X1744409D1*
G37*
G36*
X1701096Y5505600D2*
X1626299D1*
Y5556780D1*
X1701096D1*
Y5505600D1*
G37*
G36*
Y5619767D2*
X1626299D1*
Y5670948D1*
X1701096D1*
Y5619767D1*
G37*
D86*
X1663701Y5531181D3*
Y5645354D3*
G36*
X1731909Y5153031D2*
X1729944D1*
D1*
X1731909D1*
G37*
G36*
X1688596Y5180600D2*
X1613799D1*
Y5231780D1*
X1688596D1*
Y5180600D1*
G37*
G36*
Y5294767D2*
X1613799D1*
Y5345948D1*
X1688596D1*
Y5294767D1*
G37*
D86*
X1651201Y5206181D3*
Y5320354D3*
G36*
X1731909Y4828031D2*
X1729944D1*
D1*
X1731909D1*
G37*
G36*
X1688596Y4855600D2*
X1613799D1*
Y4906780D1*
X1688596D1*
Y4855600D1*
G37*
G36*
Y4969767D2*
X1613799D1*
Y5020948D1*
X1688596D1*
Y4969767D1*
G37*
D86*
X1651201Y4881181D3*
Y4995354D3*
G36*
X1731909Y4378071D2*
X1729944D1*
D1*
X1731909D1*
G37*
G36*
X1688596Y4405639D2*
X1613799D1*
Y4456820D1*
X1688596D1*
Y4405639D1*
G37*
G36*
Y4519807D2*
X1613799D1*
Y4570987D1*
X1688596D1*
Y4519807D1*
G37*
D86*
X1651201Y4431220D3*
Y4545394D3*
G36*
X1731909Y4053071D2*
X1729944D1*
D1*
X1731909D1*
G37*
G36*
X1688596Y4080639D2*
X1613799D1*
Y4131820D1*
X1688596D1*
Y4080639D1*
G37*
G36*
Y4194807D2*
X1613799D1*
Y4245987D1*
X1688596D1*
Y4194807D1*
G37*
D86*
X1651201Y4106220D3*
Y4220394D3*
G36*
X1731909Y3728051D2*
X1729944D1*
D1*
X1731909D1*
G37*
G36*
X1688596Y3755619D2*
X1613799D1*
Y3806800D1*
X1688596D1*
Y3755619D1*
G37*
G36*
Y3869787D2*
X1613799D1*
Y3920968D1*
X1688596D1*
Y3869787D1*
G37*
D86*
X1651201Y3781201D3*
Y3895374D3*
G36*
X1731909Y3403071D2*
X1729944D1*
D1*
X1731909D1*
G37*
G36*
X1688596Y3430639D2*
X1613799D1*
Y3481820D1*
X1688596D1*
Y3430639D1*
G37*
G36*
Y3544807D2*
X1613799D1*
Y3595987D1*
X1688596D1*
Y3544807D1*
G37*
D86*
X1651201Y3456220D3*
Y3570394D3*
G36*
X1731890Y2953031D2*
X1729924D1*
D1*
X1731890D1*
G37*
G36*
X1688576Y2980600D2*
X1613780D1*
Y3031780D1*
X1688576D1*
Y2980600D1*
G37*
G36*
Y3094767D2*
X1613780D1*
Y3145948D1*
X1688576D1*
Y3094767D1*
G37*
D86*
X1651181Y3006181D3*
Y3120354D3*
G36*
X1731909Y2628031D2*
X1729944D1*
D1*
X1731909D1*
G37*
G36*
X1688596Y2655600D2*
X1613799D1*
Y2706780D1*
X1688596D1*
Y2655600D1*
G37*
G36*
Y2769767D2*
X1613799D1*
Y2820948D1*
X1688596D1*
Y2769767D1*
G37*
D86*
X1651201Y2681181D3*
Y2795354D3*
G36*
X1731909Y2303031D2*
X1729944D1*
D1*
X1731909D1*
G37*
G36*
X1688596Y2330600D2*
X1613799D1*
Y2381780D1*
X1688596D1*
Y2330600D1*
G37*
G36*
Y2444767D2*
X1613799D1*
Y2495948D1*
X1688596D1*
Y2444767D1*
G37*
D86*
X1651201Y2356181D3*
Y2470354D3*
G36*
X1731909Y1978031D2*
X1729944D1*
D1*
X1731909D1*
G37*
G36*
X1688596Y2005600D2*
X1613799D1*
Y2056780D1*
X1688596D1*
Y2005600D1*
G37*
G36*
Y2119767D2*
X1613799D1*
Y2170948D1*
X1688596D1*
Y2119767D1*
G37*
D86*
X1651201Y2031181D3*
Y2145354D3*
G36*
X1731909Y1515551D2*
X1729944D1*
D1*
X1731909D1*
G37*
G36*
X1688596Y1543119D2*
X1613799D1*
Y1594300D1*
X1688596D1*
Y1543119D1*
G37*
G36*
Y1657287D2*
X1613799D1*
Y1708468D1*
X1688596D1*
Y1657287D1*
G37*
D86*
X1651201Y1568701D3*
Y1682874D3*
G36*
X1731909Y1178071D2*
X1729944D1*
D1*
X1731909D1*
G37*
G36*
X1688596Y1205639D2*
X1613799D1*
Y1256820D1*
X1688596D1*
Y1205639D1*
G37*
G36*
Y1319807D2*
X1613799D1*
Y1370987D1*
X1688596D1*
Y1319807D1*
G37*
D86*
X1651201Y1231220D3*
Y1345394D3*
G36*
X1731909Y840551D2*
X1729944D1*
D1*
X1731909D1*
G37*
G36*
X1688596Y868119D2*
X1613799D1*
Y919300D1*
X1688596D1*
Y868119D1*
G37*
G36*
Y982287D2*
X1613799D1*
Y1033468D1*
X1688596D1*
Y982287D1*
G37*
D86*
X1651201Y893701D3*
Y1007874D3*
G36*
X1731909Y503031D2*
X1729944D1*
D1*
X1731909D1*
G37*
G36*
X1688596Y530600D2*
X1613799D1*
Y581780D1*
X1688596D1*
Y530600D1*
G37*
G36*
Y644767D2*
X1613799D1*
Y695948D1*
X1688596D1*
Y644767D1*
G37*
D86*
X1651201Y556181D3*
Y670354D3*
G36*
X2070472Y6036024D2*
X2072438D1*
D1*
X2070472D1*
G37*
G36*
X2113786Y6008456D2*
X2188583D1*
Y5957275D1*
X2113786D1*
Y6008456D1*
G37*
G36*
Y5894288D2*
X2188583D1*
Y5843107D1*
X2113786D1*
Y5894288D1*
G37*
D86*
X2151181Y5982874D3*
Y5868701D3*
G36*
X2070472Y5698504D2*
X2072438D1*
D1*
X2070472D1*
G37*
G36*
X2113786Y5670936D2*
X2188583D1*
Y5619755D1*
X2113786D1*
Y5670936D1*
G37*
G36*
Y5556768D2*
X2188583D1*
Y5505587D1*
X2113786D1*
Y5556768D1*
G37*
D86*
X2151181Y5645354D3*
Y5531181D3*
G36*
X2070492Y5373504D2*
X2072457D1*
D1*
X2070492D1*
G37*
G36*
X2113806Y5345936D2*
X2188602D1*
Y5294755D1*
X2113806D1*
Y5345936D1*
G37*
G36*
Y5231768D2*
X2188602D1*
Y5180587D1*
X2113806D1*
Y5231768D1*
G37*
D86*
X2151201Y5320354D3*
Y5206181D3*
G36*
X2082992Y5048504D2*
X2084957D1*
D1*
X2082992D1*
G37*
G36*
X2126306Y5020936D2*
X2201102D1*
Y4969755D1*
X2126306D1*
Y5020936D1*
G37*
G36*
Y4906768D2*
X2201102D1*
Y4855587D1*
X2126306D1*
Y4906768D1*
G37*
D86*
X2163701Y4995354D3*
Y4881181D3*
G36*
X2082992Y4598543D2*
X2084957D1*
D1*
X2082992D1*
G37*
G36*
X2126306Y4570975D2*
X2201102D1*
Y4519794D1*
X2126306D1*
Y4570975D1*
G37*
G36*
Y4456807D2*
X2201102D1*
Y4405627D1*
X2126306D1*
Y4456807D1*
G37*
D86*
X2163701Y4545394D3*
Y4431220D3*
G36*
X2082992Y4273543D2*
X2084957D1*
D1*
X2082992D1*
G37*
G36*
X2126306Y4245975D2*
X2201102D1*
Y4194794D1*
X2126306D1*
Y4245975D1*
G37*
G36*
Y4131807D2*
X2201102D1*
Y4080627D1*
X2126306D1*
Y4131807D1*
G37*
D86*
X2163701Y4220394D3*
Y4106220D3*
G36*
X2082992Y3948543D2*
X2084957D1*
D1*
X2082992D1*
G37*
G36*
X2126306Y3920975D2*
X2201102D1*
Y3869794D1*
X2126306D1*
Y3920975D1*
G37*
G36*
Y3806807D2*
X2201102D1*
Y3755627D1*
X2126306D1*
Y3806807D1*
G37*
D86*
X2163701Y3895394D3*
Y3781220D3*
G36*
X2082992Y3623543D2*
X2084957D1*
D1*
X2082992D1*
G37*
G36*
X2126306Y3595975D2*
X2201102D1*
Y3544794D1*
X2126306D1*
Y3595975D1*
G37*
G36*
Y3481807D2*
X2201102D1*
Y3430627D1*
X2126306D1*
Y3481807D1*
G37*
D86*
X2163701Y3570394D3*
Y3456220D3*
G36*
X2082992Y3173504D2*
X2084957D1*
D1*
X2082992D1*
G37*
G36*
X2126306Y3145936D2*
X2201102D1*
Y3094755D1*
X2126306D1*
Y3145936D1*
G37*
G36*
Y3031768D2*
X2201102D1*
Y2980587D1*
X2126306D1*
Y3031768D1*
G37*
D86*
X2163701Y3120354D3*
Y3006181D3*
G36*
X2082992Y2848504D2*
X2084957D1*
D1*
X2082992D1*
G37*
G36*
X2126306Y2820936D2*
X2201102D1*
Y2769755D1*
X2126306D1*
Y2820936D1*
G37*
G36*
Y2706768D2*
X2201102D1*
Y2655587D1*
X2126306D1*
Y2706768D1*
G37*
D86*
X2163701Y2795354D3*
Y2681181D3*
G36*
X2082992Y2523504D2*
X2084957D1*
D1*
X2082992D1*
G37*
G36*
X2126306Y2495936D2*
X2201102D1*
Y2444755D1*
X2126306D1*
Y2495936D1*
G37*
G36*
Y2381768D2*
X2201102D1*
Y2330587D1*
X2126306D1*
Y2381768D1*
G37*
D86*
X2163701Y2470354D3*
Y2356181D3*
G36*
X2082992Y2198504D2*
X2084957D1*
D1*
X2082992D1*
G37*
G36*
X2126306Y2170936D2*
X2201102D1*
Y2119755D1*
X2126306D1*
Y2170936D1*
G37*
G36*
Y2056768D2*
X2201102D1*
Y2005587D1*
X2126306D1*
Y2056768D1*
G37*
D86*
X2163701Y2145354D3*
Y2031181D3*
G36*
X2082992Y1736024D2*
X2084957D1*
D1*
X2082992D1*
G37*
G36*
X2126306Y1708456D2*
X2201102D1*
Y1657275D1*
X2126306D1*
Y1708456D1*
G37*
G36*
Y1594288D2*
X2201102D1*
Y1543107D1*
X2126306D1*
Y1594288D1*
G37*
D86*
X2163701Y1682874D3*
Y1568701D3*
G36*
X2082992Y1398543D2*
X2084957D1*
D1*
X2082992D1*
G37*
G36*
X2126306Y1370975D2*
X2201102D1*
Y1319794D1*
X2126306D1*
Y1370975D1*
G37*
G36*
Y1256807D2*
X2201102D1*
Y1205627D1*
X2126306D1*
Y1256807D1*
G37*
D86*
X2163701Y1345394D3*
Y1231220D3*
G36*
X2082992Y1061024D2*
X2084957D1*
D1*
X2082992D1*
G37*
G36*
X2126306Y1033456D2*
X2201102D1*
Y982275D1*
X2126306D1*
Y1033456D1*
G37*
G36*
Y919288D2*
X2201102D1*
Y868107D1*
X2126306D1*
Y919288D1*
G37*
D86*
X2163701Y1007874D3*
Y893701D3*
G36*
X2082992Y723504D2*
X2084957D1*
D1*
X2082992D1*
G37*
G36*
X2126306Y695936D2*
X2201102D1*
Y644755D1*
X2126306D1*
Y695936D1*
G37*
G36*
Y581768D2*
X2201102D1*
Y530587D1*
X2126306D1*
Y581768D1*
G37*
D86*
X2163701Y670354D3*
Y556181D3*
G36*
X2482349Y4768759D2*
X2407554D1*
Y4819923D1*
X2482349D1*
Y4768759D1*
G37*
G36*
Y4886870D2*
X2407554D1*
Y4938033D1*
X2482349D1*
Y4886870D1*
G37*
D86*
X2444951Y4794341D3*
Y4912451D3*
G36*
X2469849Y1905619D2*
X2395054D1*
Y1956782D1*
X2469849D1*
Y1905619D1*
G37*
G36*
Y2023730D2*
X2395054D1*
Y2074893D1*
X2469849D1*
Y2023730D1*
G37*
D86*
X2432451Y1931201D3*
Y2049311D3*
G36*
X3715118Y2781741D2*
D1*
Y2783707D1*
D1*
Y2781741D1*
G37*
G36*
X3742686Y2825055D2*
X3793867D1*
Y2899852D1*
X3742686D1*
Y2825055D1*
G37*
G36*
X3856854D2*
X3908035D1*
Y2899852D1*
X3856854D1*
Y2825055D1*
G37*
D84*
X3768268Y2862450D3*
X3882441D3*
G36*
X3715118Y2026018D2*
D1*
Y2027984D1*
D1*
Y2026018D1*
G37*
G36*
X3742686Y2069332D2*
X3793867D1*
Y2144129D1*
X3742686D1*
Y2069332D1*
G37*
G36*
X3856854D2*
X3908035D1*
Y2144129D1*
X3856854D1*
Y2069332D1*
G37*
D84*
X3768268Y2106727D3*
X3882441D3*
G36*
X4178661Y628937D2*
X4176696D1*
D1*
X4178661D1*
G37*
G36*
X4135348Y656505D2*
X4060551D1*
Y707686D1*
X4135348D1*
Y656505D1*
G37*
G36*
Y770673D2*
X4060551D1*
Y821854D1*
X4135348D1*
Y770673D1*
G37*
D86*
X4097953Y682087D3*
Y796260D3*
G36*
X3935591Y3211909D2*
D1*
Y3209944D1*
D1*
Y3211909D1*
G37*
G36*
X3908022Y3168596D2*
X3856842D1*
Y3093799D1*
X3908022D1*
Y3168596D1*
G37*
G36*
X3793855D2*
X3742674D1*
Y3093799D1*
X3793855D1*
Y3168596D1*
G37*
D84*
X3882441Y3131201D3*
X3768268D3*
D83*
X3719951Y5112451D3*
X3720345Y5250148D3*
D81*
X3401201Y5118693D3*
Y5318693D3*
X4001193Y5112450D3*
X4201193D3*
D83*
X4476201Y4968701D3*
X4476594Y5106398D3*
D80*
X3719951Y3393701D3*
X3523101D3*
D54*
X3188701Y2731201D3*
D71*
Y2632776D3*
Y2554035D3*
Y2455610D3*
D76*
X3070591Y2852067D3*
Y2334744D3*
D74*
X5288701Y5868701D3*
D72*
X5367441Y5632480D3*
D74*
Y6104921D3*
X5847756Y6112795D3*
Y5632480D3*
X5288701Y5218701D3*
D72*
X5367441Y4982480D3*
D74*
Y5454921D3*
X5847756Y5462795D3*
Y4982480D3*
X5288701Y4568701D3*
D72*
X5367441Y4332480D3*
D74*
Y4804921D3*
X5847756Y4812795D3*
Y4332480D3*
X5288701Y3918701D3*
D72*
X5367441Y3682480D3*
D74*
Y4154921D3*
X5847756Y4162795D3*
Y3682480D3*
X5288701Y3268701D3*
D72*
X5367441Y3032480D3*
D74*
Y3504921D3*
X5847756Y3512795D3*
Y3032480D3*
X5288701Y2618701D3*
D72*
X5367441Y2382480D3*
D74*
Y2854921D3*
X5847756Y2862795D3*
Y2382480D3*
X5288701Y1968701D3*
D72*
X5367441Y1732480D3*
D74*
Y2204921D3*
X5847756Y2212795D3*
Y1732480D3*
X5288701Y1318701D3*
D72*
X5367441Y1082480D3*
D74*
Y1554921D3*
X5847756Y1562795D3*
Y1082480D3*
D70*
X3357451Y4649951D3*
X3457451D3*
X3717451D3*
X3817451D3*
Y3919951D3*
X3717451D3*
X3357451D3*
X3457451D3*
D65*
X4400777Y2244213D3*
D35*
Y2144213D3*
Y2044213D3*
Y1944213D3*
Y1844213D3*
Y1744213D3*
Y1644213D3*
Y1544213D3*
Y1444213D3*
X4700777D3*
Y1544213D3*
Y1644213D3*
Y1744213D3*
Y1844213D3*
Y1944213D3*
Y2044213D3*
Y2144213D3*
Y2244213D3*
D66*
X3869583Y2675417D3*
Y2242346D3*
G36*
X2257563Y6010424D2*
X2332358D1*
Y5959261D1*
X2257563D1*
Y6010424D1*
G37*
G36*
Y5892314D2*
X2332358D1*
Y5841150D1*
X2257563D1*
Y5892314D1*
G37*
D86*
X2294961Y5984843D3*
Y5866732D3*
G36*
X2257563Y3147905D2*
X2332358D1*
Y3096741D1*
X2257563D1*
Y3147905D1*
G37*
G36*
Y3029794D2*
X2332358D1*
Y2978631D1*
X2257563D1*
Y3029794D1*
G37*
D86*
X2294961Y3122323D3*
Y3004213D3*
G36*
X2332358Y5618119D2*
X2257563D1*
Y5669282D1*
X2332358D1*
Y5618119D1*
G37*
G36*
Y5736230D2*
X2257563D1*
Y5787393D1*
X2332358D1*
Y5736230D1*
G37*
D86*
X2294961Y5643701D3*
Y5761811D3*
G36*
X2332358Y2768119D2*
X2257563D1*
Y2819282D1*
X2332358D1*
Y2768119D1*
G37*
G36*
Y2886230D2*
X2257563D1*
Y2937393D1*
X2332358D1*
Y2886230D1*
G37*
D86*
X2294961Y2793701D3*
Y2911811D3*
G36*
X2257563Y5347905D2*
X2332358D1*
Y5296741D1*
X2257563D1*
Y5347905D1*
G37*
G36*
Y5229794D2*
X2332358D1*
Y5178631D1*
X2257563D1*
Y5229794D1*
G37*
D86*
X2294961Y5322323D3*
Y5204213D3*
G36*
X2257563Y2497905D2*
X2332358D1*
Y2446741D1*
X2257563D1*
Y2497905D1*
G37*
G36*
Y2379794D2*
X2332358D1*
Y2328631D1*
X2257563D1*
Y2379794D1*
G37*
D86*
X2294961Y2472323D3*
Y2354213D3*
G36*
X2257563Y5022905D2*
X2332358D1*
Y4971741D1*
X2257563D1*
Y5022905D1*
G37*
G36*
Y4904794D2*
X2332358D1*
Y4853631D1*
X2257563D1*
Y4904794D1*
G37*
D86*
X2294961Y4997323D3*
Y4879213D3*
G36*
X2257563Y2172905D2*
X2332358D1*
Y2121741D1*
X2257563D1*
Y2172905D1*
G37*
G36*
Y2054794D2*
X2332358D1*
Y2003631D1*
X2257563D1*
Y2054794D1*
G37*
D86*
X2294961Y2147323D3*
Y2029213D3*
G36*
X2332358Y4403670D2*
X2257563D1*
Y4454833D1*
X2332358D1*
Y4403670D1*
G37*
G36*
Y4521781D2*
X2257563D1*
Y4572944D1*
X2332358D1*
Y4521781D1*
G37*
D86*
X2294961Y4429252D3*
Y4547362D3*
G36*
X2332349Y1543119D2*
X2257554D1*
Y1594282D1*
X2332349D1*
Y1543119D1*
G37*
G36*
Y1661230D2*
X2257554D1*
Y1712393D1*
X2332349D1*
Y1661230D1*
G37*
D86*
X2294951Y1568701D3*
Y1686811D3*
G36*
X2332358Y4193119D2*
X2257563D1*
Y4244282D1*
X2332358D1*
Y4193119D1*
G37*
G36*
Y4311230D2*
X2257563D1*
Y4362393D1*
X2332358D1*
Y4311230D1*
G37*
D86*
X2294961Y4218701D3*
Y4336811D3*
G36*
X2332358Y1318119D2*
X2257563D1*
Y1369282D1*
X2332358D1*
Y1318119D1*
G37*
G36*
Y1436230D2*
X2257563D1*
Y1487393D1*
X2332358D1*
Y1436230D1*
G37*
D86*
X2294961Y1343701D3*
Y1461811D3*
G36*
X2257563Y3922944D2*
X2332358D1*
Y3871781D1*
X2257563D1*
Y3922944D1*
G37*
G36*
Y3804833D2*
X2332358D1*
Y3753670D1*
X2257563D1*
Y3804833D1*
G37*
D86*
X2294961Y3897362D3*
Y3779252D3*
G36*
X2257563Y1035424D2*
X2332358D1*
Y984261D1*
X2257563D1*
Y1035424D1*
G37*
G36*
Y917314D2*
X2332358D1*
Y866150D1*
X2257563D1*
Y917314D1*
G37*
D86*
X2294961Y1009843D3*
Y891732D3*
G36*
X2332358Y3543119D2*
X2257563D1*
Y3594282D1*
X2332358D1*
Y3543119D1*
G37*
G36*
Y3661230D2*
X2257563D1*
Y3712393D1*
X2332358D1*
Y3661230D1*
G37*
D86*
X2294961Y3568701D3*
Y3686811D3*
G36*
X2332358Y655619D2*
X2257563D1*
Y706782D1*
X2332358D1*
Y655619D1*
G37*
G36*
Y773730D2*
X2257563D1*
Y824893D1*
X2332358D1*
Y773730D1*
G37*
D86*
X2294961Y681201D3*
Y799311D3*
G36*
X2756870Y3706303D2*
X2808033D1*
Y3781098D1*
X2756870D1*
Y3706303D1*
G37*
G36*
X2874980D2*
X2926144D1*
Y3781098D1*
X2874980D1*
Y3706303D1*
G37*
D84*
X2782451Y3743701D3*
X2900562D3*
G36*
X4020533Y981098D2*
X3969370D1*
Y906303D1*
X4020533D1*
Y981098D1*
G37*
G36*
X3902423D2*
X3851259D1*
Y906303D1*
X3902423D1*
Y981098D1*
G37*
D84*
X3994951Y943701D3*
X3876841D3*
G36*
X3451783Y3043598D2*
X3400619D1*
Y2968803D1*
X3451783D1*
Y3043598D1*
G37*
G36*
X3333672D2*
X3282509D1*
Y2968803D1*
X3333672D1*
Y3043598D1*
G37*
D84*
X3426201Y3006201D3*
X3308091D3*
G36*
X4319849Y2818119D2*
X4245054D1*
Y2869282D1*
X4319849D1*
Y2818119D1*
G37*
G36*
Y2936230D2*
X4245054D1*
Y2987393D1*
X4319849D1*
Y2936230D1*
G37*
D86*
X4282451Y2843701D3*
Y2961811D3*
G36*
X3214283Y3043598D2*
X3163119D1*
Y2968803D1*
X3214283D1*
Y3043598D1*
G37*
G36*
X3096172D2*
X3045009D1*
Y2968803D1*
X3096172D1*
Y3043598D1*
G37*
D84*
X3188701Y3006201D3*
X3070591D3*
D65*
X2863701Y4799951D3*
D35*
Y4899951D3*
Y4999951D3*
Y5099951D3*
Y5199951D3*
Y5299951D3*
Y5399951D3*
Y5499951D3*
X2563701D3*
Y5399951D3*
Y5299951D3*
Y5199951D3*
Y5099951D3*
Y4999951D3*
Y4899951D3*
Y4799951D3*
D65*
X2863701Y1943701D3*
D35*
Y2043701D3*
Y2143701D3*
Y2243701D3*
Y2343701D3*
Y2443701D3*
Y2543701D3*
Y2643701D3*
X2563701D3*
Y2543701D3*
Y2443701D3*
Y2343701D3*
Y2243701D3*
Y2143701D3*
Y2043701D3*
Y1943701D3*
D65*
X4094951Y943701D3*
D35*
Y1043701D3*
Y1143701D3*
Y1243701D3*
Y1343701D3*
Y1443701D3*
Y1543701D3*
Y1643701D3*
Y1743701D3*
Y1843701D3*
Y1943701D3*
Y2043701D3*
Y2143701D3*
Y2243701D3*
Y2343701D3*
Y2443701D3*
Y2543701D3*
Y2643701D3*
Y2743701D3*
Y2843701D3*
X3494951D3*
Y2743701D3*
Y2643701D3*
Y2543701D3*
Y2443701D3*
Y2343701D3*
Y2243701D3*
Y2143701D3*
Y2043701D3*
Y1943701D3*
Y1843701D3*
Y1743701D3*
Y1643701D3*
Y1543701D3*
Y1443701D3*
Y1343701D3*
Y1243701D3*
Y1143701D3*
Y1043701D3*
Y943701D3*
D64*
X3901201Y5449951D3*
D63*
X4001201D3*
X4101201D3*
G36*
X1272346Y5817520D2*
X1355024D1*
Y5919882D1*
X1272346D1*
Y5817520D1*
G37*
G36*
X1469197D2*
X1551906D1*
Y5919882D1*
X1469197D1*
Y5817520D1*
G37*
D61*
X1313701Y5868701D3*
X1510551D3*
G36*
X1272346Y5480020D2*
X1355024D1*
Y5582382D1*
X1272346D1*
Y5480020D1*
G37*
G36*
X1469197D2*
X1551906D1*
Y5582382D1*
X1469197D1*
Y5480020D1*
G37*
D61*
X1313701Y5531201D3*
X1510551D3*
G36*
X1272346Y5155020D2*
X1355024D1*
Y5257382D1*
X1272346D1*
Y5155020D1*
G37*
G36*
X1469197D2*
X1551906D1*
Y5257382D1*
X1469197D1*
Y5155020D1*
G37*
D61*
X1313701Y5206201D3*
X1510551D3*
G36*
X1272346Y4830020D2*
X1355024D1*
Y4932382D1*
X1272346D1*
Y4830020D1*
G37*
G36*
X1469197D2*
X1551906D1*
Y4932382D1*
X1469197D1*
Y4830020D1*
G37*
D61*
X1313701Y4881201D3*
X1510551D3*
G36*
X1272346Y4392520D2*
X1355024D1*
Y4494882D1*
X1272346D1*
Y4392520D1*
G37*
G36*
X1469197D2*
X1551906D1*
Y4494882D1*
X1469197D1*
Y4392520D1*
G37*
D61*
X1313701Y4443701D3*
X1510551D3*
G36*
X1272346Y4055020D2*
X1355024D1*
Y4157382D1*
X1272346D1*
Y4055020D1*
G37*
G36*
X1469197D2*
X1551906D1*
Y4157382D1*
X1469197D1*
Y4055020D1*
G37*
D61*
X1313701Y4106201D3*
X1510551D3*
G36*
X1272346Y3730020D2*
X1355024D1*
Y3832382D1*
X1272346D1*
Y3730020D1*
G37*
G36*
X1469197D2*
X1551906D1*
Y3832382D1*
X1469197D1*
Y3730020D1*
G37*
D61*
X1313701Y3781201D3*
X1510551D3*
G36*
X1272346Y3405020D2*
X1355024D1*
Y3507382D1*
X1272346D1*
Y3405020D1*
G37*
G36*
X1469197D2*
X1551906D1*
Y3507382D1*
X1469197D1*
Y3405020D1*
G37*
D61*
X1313701Y3456201D3*
X1510551D3*
G36*
X1272346Y2955020D2*
X1355024D1*
Y3057382D1*
X1272346D1*
Y2955020D1*
G37*
G36*
X1469197D2*
X1551906D1*
Y3057382D1*
X1469197D1*
Y2955020D1*
G37*
D61*
X1313701Y3006201D3*
X1510551D3*
G36*
X1272346Y2630020D2*
X1355024D1*
Y2732382D1*
X1272346D1*
Y2630020D1*
G37*
G36*
X1469197D2*
X1551906D1*
Y2732382D1*
X1469197D1*
Y2630020D1*
G37*
D61*
X1313701Y2681201D3*
X1510551D3*
G36*
X1272346Y2305020D2*
X1355024D1*
Y2407382D1*
X1272346D1*
Y2305020D1*
G37*
G36*
X1469197D2*
X1551906D1*
Y2407382D1*
X1469197D1*
Y2305020D1*
G37*
D61*
X1313701Y2356201D3*
X1510551D3*
G36*
X1272346Y1980020D2*
X1355024D1*
Y2082382D1*
X1272346D1*
Y1980020D1*
G37*
G36*
X1469197D2*
X1551906D1*
Y2082382D1*
X1469197D1*
Y1980020D1*
G37*
D61*
X1313701Y2031201D3*
X1510551D3*
G36*
X1272346Y1517520D2*
X1355024D1*
Y1619882D1*
X1272346D1*
Y1517520D1*
G37*
G36*
X1469197D2*
X1551906D1*
Y1619882D1*
X1469197D1*
Y1517520D1*
G37*
D61*
X1313701Y1568701D3*
X1510551D3*
G36*
X1272346Y1180020D2*
X1355024D1*
Y1282382D1*
X1272346D1*
Y1180020D1*
G37*
G36*
X1469197D2*
X1551906D1*
Y1282382D1*
X1469197D1*
Y1180020D1*
G37*
D61*
X1313701Y1231201D3*
X1510551D3*
G36*
X1272346Y855020D2*
X1355024D1*
Y957382D1*
X1272346D1*
Y855020D1*
G37*
G36*
X1469197D2*
X1551906D1*
Y957382D1*
X1469197D1*
Y855020D1*
G37*
D61*
X1313701Y906201D3*
X1510551D3*
G36*
X1272346Y505020D2*
X1355024D1*
Y607382D1*
X1272346D1*
Y505020D1*
G37*
G36*
X1469197D2*
X1551906D1*
Y607382D1*
X1469197D1*
Y505020D1*
G37*
D61*
X1313701Y556201D3*
X1510551D3*
G36*
X1629547Y6062205D2*
X1672854D1*
Y6125197D1*
X1629547D1*
Y6062205D1*
G37*
G36*
X1720098D2*
X1763406D1*
Y6125197D1*
X1720098D1*
Y6062205D1*
G37*
D59*
X1651201Y6093701D3*
X1741752D3*
G36*
X1629547Y5712205D2*
X1672854D1*
Y5775197D1*
X1629547D1*
Y5712205D1*
G37*
G36*
X1720098D2*
X1763406D1*
Y5775197D1*
X1720098D1*
Y5712205D1*
G37*
D59*
X1651201Y5743701D3*
X1741752D3*
G36*
X1617047Y5387205D2*
X1660354D1*
Y5450197D1*
X1617047D1*
Y5387205D1*
G37*
G36*
X1707598D2*
X1750906D1*
Y5450197D1*
X1707598D1*
Y5387205D1*
G37*
D59*
X1638701Y5418701D3*
X1729252D3*
G36*
X1617047Y5062205D2*
X1660354D1*
Y5125197D1*
X1617047D1*
Y5062205D1*
G37*
G36*
X1707598D2*
X1750906D1*
Y5125197D1*
X1707598D1*
Y5062205D1*
G37*
D59*
X1638701Y5093701D3*
X1729252D3*
G36*
X1617047Y4612205D2*
X1660354D1*
Y4675197D1*
X1617047D1*
Y4612205D1*
G37*
G36*
X1707598D2*
X1750906D1*
Y4675197D1*
X1707598D1*
Y4612205D1*
G37*
D59*
X1638701Y4643701D3*
X1729252D3*
G36*
X1617047Y4287205D2*
X1660354D1*
Y4350197D1*
X1617047D1*
Y4287205D1*
G37*
G36*
X1707598D2*
X1750906D1*
Y4350197D1*
X1707598D1*
Y4287205D1*
G37*
D59*
X1638701Y4318701D3*
X1729252D3*
G36*
X1617047Y3962205D2*
X1660354D1*
Y4025197D1*
X1617047D1*
Y3962205D1*
G37*
G36*
X1707598D2*
X1750906D1*
Y4025197D1*
X1707598D1*
Y3962205D1*
G37*
D59*
X1638701Y3993701D3*
X1729252D3*
G36*
X1617047Y3637205D2*
X1660354D1*
Y3700197D1*
X1617047D1*
Y3637205D1*
G37*
G36*
X1707598D2*
X1750906D1*
Y3700197D1*
X1707598D1*
Y3637205D1*
G37*
D59*
X1638701Y3668701D3*
X1729252D3*
G36*
X1617047Y3187205D2*
X1660354D1*
Y3250197D1*
X1617047D1*
Y3187205D1*
G37*
G36*
X1707598D2*
X1750906D1*
Y3250197D1*
X1707598D1*
Y3187205D1*
G37*
D59*
X1638701Y3218701D3*
X1729252D3*
G36*
X1617047Y2862205D2*
X1660354D1*
Y2925197D1*
X1617047D1*
Y2862205D1*
G37*
G36*
X1707598D2*
X1750906D1*
Y2925197D1*
X1707598D1*
Y2862205D1*
G37*
D59*
X1638701Y2893701D3*
X1729252D3*
G36*
X1613996Y2537205D2*
X1657303D1*
Y2600197D1*
X1613996D1*
Y2537205D1*
G37*
G36*
X1704547D2*
X1747854D1*
Y2600197D1*
X1704547D1*
Y2537205D1*
G37*
D59*
X1635650Y2568701D3*
X1726201D3*
G36*
X1617047Y2212205D2*
X1660354D1*
Y2275197D1*
X1617047D1*
Y2212205D1*
G37*
G36*
X1707598D2*
X1750906D1*
Y2275197D1*
X1707598D1*
Y2212205D1*
G37*
D59*
X1638701Y2243701D3*
X1729252D3*
G36*
X1617047Y1749705D2*
X1660354D1*
Y1812697D1*
X1617047D1*
Y1749705D1*
G37*
G36*
X1707598D2*
X1750906D1*
Y1812697D1*
X1707598D1*
Y1749705D1*
G37*
D59*
X1638701Y1781201D3*
X1729252D3*
G36*
X1617047Y1412205D2*
X1660354D1*
Y1475197D1*
X1617047D1*
Y1412205D1*
G37*
G36*
X1707598D2*
X1750906D1*
Y1475197D1*
X1707598D1*
Y1412205D1*
G37*
D59*
X1638701Y1443701D3*
X1729252D3*
G36*
X1617047Y1074705D2*
X1660354D1*
Y1137697D1*
X1617047D1*
Y1074705D1*
G37*
G36*
X1707598D2*
X1750906D1*
Y1137697D1*
X1707598D1*
Y1074705D1*
G37*
D59*
X1638701Y1106201D3*
X1729252D3*
G36*
X1617047Y737205D2*
X1660354D1*
Y800197D1*
X1617047D1*
Y737205D1*
G37*
G36*
X1707598D2*
X1750906D1*
Y800197D1*
X1707598D1*
Y737205D1*
G37*
D59*
X1638701Y768701D3*
X1729252D3*
D32*
X4282450Y3393690D3*
Y3293690D3*
D65*
X1763701Y5968701D3*
D20*
Y5868701D3*
X2063701D3*
Y5968701D3*
D65*
X1763701Y5643701D3*
D20*
Y5543701D3*
X2063701D3*
Y5643701D3*
D65*
X1763701Y5318701D3*
D20*
Y5218701D3*
X2063701D3*
Y5318701D3*
D65*
X1763701Y4993701D3*
D20*
Y4893701D3*
X2063701D3*
Y4993701D3*
D65*
X1763701Y4543701D3*
D20*
Y4443701D3*
X2063701D3*
Y4543701D3*
D65*
X1763701Y4218701D3*
D20*
Y4118701D3*
X2063701D3*
Y4218701D3*
D65*
X1763701Y3893701D3*
D20*
Y3793701D3*
X2063701D3*
Y3893701D3*
D65*
X1763701Y3568701D3*
D20*
Y3468701D3*
X2063701D3*
Y3568701D3*
D65*
X1763701Y3118701D3*
D20*
Y3018701D3*
X2063701D3*
Y3118701D3*
D65*
X1763701Y2793701D3*
D20*
Y2693701D3*
X2063701D3*
Y2793701D3*
D65*
X1763701Y2468701D3*
D20*
Y2368701D3*
X2063701D3*
Y2468701D3*
D65*
X1763701Y2143701D3*
D20*
Y2043701D3*
X2063701D3*
Y2143701D3*
D65*
X1763701Y1681201D3*
D20*
Y1581201D3*
X2063701D3*
Y1681201D3*
D65*
X1763701Y1343701D3*
D20*
Y1243701D3*
X2063701D3*
Y1343701D3*
D65*
X1763701Y1006201D3*
D20*
Y906201D3*
X2063701D3*
Y1006201D3*
D65*
X1763701Y668701D3*
D20*
Y568701D3*
X2063701D3*
Y668701D3*
D57*
X551181Y5706201D3*
D55*
Y5509350D3*
Y5312500D3*
Y5115650D3*
Y4918799D3*
Y4721949D3*
Y4525098D3*
Y4328248D3*
Y4131398D3*
Y3934547D3*
D57*
X563701Y2843701D3*
D55*
Y2646850D3*
Y2450000D3*
Y2253150D3*
Y2056299D3*
Y1859449D3*
Y1662598D3*
Y1465748D3*
Y1268898D3*
Y1072047D3*
D53*
X3388701Y699951D3*
D70*
X3288701D3*
X3188701D3*
X3088701D3*
X2988701D3*
X2888701D3*
X2788701D3*
D74*
X551181Y6181201D3*
Y6378051D3*
X6588701Y6068701D3*
X6588696Y5871865D3*
Y5675014D3*
X6588701Y5418701D3*
X6588696Y5221865D3*
Y5025014D3*
X6588701Y4768701D3*
X6588696Y4571865D3*
Y4375014D3*
X6588701Y4118701D3*
X6588696Y3921865D3*
Y3725014D3*
X6588701Y3468701D3*
X6588696Y3271865D3*
Y3075014D3*
X6588701Y2818701D3*
X6588696Y2621865D3*
Y2425014D3*
X6588701Y2168701D3*
X6588696Y1971865D3*
Y1775014D3*
X6588701Y1518701D3*
X6588696Y1321865D3*
Y1125014D3*
G36*
X3363644Y5574849D2*
X3312480D1*
Y5500054D1*
X3363644D1*
Y5574849D1*
G37*
G36*
X3245533D2*
X3194370D1*
Y5500054D1*
X3245533D1*
Y5574849D1*
G37*
D84*
X3338062Y5537451D3*
X3219951D3*
G36*
X3363644Y5693598D2*
X3312480D1*
Y5618803D1*
X3363644D1*
Y5693598D1*
G37*
G36*
X3245533D2*
X3194370D1*
Y5618803D1*
X3245533D1*
Y5693598D1*
G37*
D84*
X3338062Y5656201D3*
X3219951D3*
D51*
X3276299Y1643701D3*
Y1593701D3*
Y1543701D3*
Y1493701D3*
X3063701D3*
Y1543701D3*
Y1593701D3*
Y1643701D3*
G36*
X3550619Y1606303D2*
X3601782D1*
Y1681098D1*
X3550619D1*
Y1606303D1*
G37*
G36*
X3668730D2*
X3719893D1*
Y1681098D1*
X3668730D1*
Y1606303D1*
G37*
D84*
X3576201Y1643701D3*
X3694311D3*
G36*
X3550619Y1506303D2*
X3601782D1*
Y1581098D1*
X3550619D1*
Y1506303D1*
G37*
G36*
X3668730D2*
X3719893D1*
Y1581098D1*
X3668730D1*
Y1506303D1*
G37*
D84*
X3576201Y1543701D3*
X3694311D3*
G36*
X3116850Y1824409D2*
D1*
Y1822444D1*
D1*
Y1824409D1*
G37*
G36*
X3089282Y1781096D2*
X3038102D1*
Y1706299D1*
X3089282D1*
Y1781096D1*
G37*
G36*
X2975115D2*
X2923934D1*
Y1706299D1*
X2975115D1*
Y1781096D1*
G37*
D84*
X3063701Y1743701D3*
X2949528D3*
D81*
X2294961Y843701D3*
Y1518701D3*
Y1931201D3*
Y2268701D3*
Y2956201D3*
Y3731201D3*
Y4381201D3*
Y4793701D3*
Y5118701D3*
Y5818701D3*
X3351201Y3331201D3*
X3351181Y1743701D3*
Y843701D3*
D41*
X4913701Y5843701D3*
Y843701D3*
X1001220Y5843701D3*
Y3418701D3*
Y843701D3*
M02*
