G04 DipTrace 3.0.0.1*
G04 Верхний.gbr*
%MOIN*%
G04 #@! TF.FileFunction,Copper,L1,Top*
G04 #@! TF.Part,Single*
G04 #@! TA.AperFunction,Conductor*
%ADD14C,0.023622*%
G04 #@! TA.AperFunction,ComponentPad*
%ADD16C,0.07874*%
%ADD20C,0.066929*%
%ADD21C,0.098425*%
%ADD22R,0.062992X0.062992*%
%ADD23C,0.062992*%
%ADD24C,0.129921*%
%ADD25C,0.098425*%
%ADD26R,0.098425X0.098425*%
%ADD27C,0.07874*%
%ADD28R,0.059055X0.059055*%
%ADD29C,0.059055*%
%ADD31R,0.074803X0.074803*%
%ADD32C,0.074803*%
%ADD35C,0.066929*%
%ADD36C,0.059055*%
%ADD37R,0.11811X0.11811*%
%ADD38C,0.11811*%
%ADD39R,0.07874X0.07874*%
%FSLAX26Y26*%
G04*
G70*
G90*
G75*
G01*
G04 Top*
%LPD*%
X2294961Y843701D2*
D14*
Y1518701D1*
Y1931201D1*
Y2268701D1*
Y2956201D1*
Y3731201D1*
Y4381201D1*
Y4793701D1*
Y5818701D2*
Y5118701D1*
Y4793701D1*
Y3731201D2*
X3176201D1*
X3501201Y3406201D1*
X3523101D1*
Y3393701D1*
X3351201Y3331201D2*
Y1743701D1*
X3351181D1*
Y843701D1*
X3351201Y3331201D2*
X3460601D1*
X3523101Y3393701D1*
D20*
X3719951Y5112451D3*
X3720345Y5250148D3*
D16*
X3401201Y5118693D3*
Y5318693D3*
X4001193Y5112450D3*
X4201193D3*
D20*
X4476201Y4968701D3*
X4476594Y5106398D3*
D21*
X3719951Y3393701D3*
X3523101D3*
D22*
X3188701Y2731201D3*
D23*
Y2632776D3*
Y2554035D3*
Y2455610D3*
D24*
X3070591Y2852067D3*
Y2334744D3*
D25*
X5288701Y5868701D3*
D26*
X5367441Y5632480D3*
D25*
Y6104921D3*
X5847756Y6112795D3*
Y5632480D3*
X5288701Y5218701D3*
D26*
X5367441Y4982480D3*
D25*
Y5454921D3*
X5847756Y5462795D3*
Y4982480D3*
X5288701Y4568701D3*
D26*
X5367441Y4332480D3*
D25*
Y4804921D3*
X5847756Y4812795D3*
Y4332480D3*
X5288701Y3918701D3*
D26*
X5367441Y3682480D3*
D25*
Y4154921D3*
X5847756Y4162795D3*
Y3682480D3*
X5288701Y3268701D3*
D26*
X5367441Y3032480D3*
D25*
Y3504921D3*
X5847756Y3512795D3*
Y3032480D3*
X5288701Y2618701D3*
D26*
X5367441Y2382480D3*
D25*
Y2854921D3*
X5847756Y2862795D3*
Y2382480D3*
X5288701Y1968701D3*
D26*
X5367441Y1732480D3*
D25*
Y2204921D3*
X5847756Y2212795D3*
Y1732480D3*
X5288701Y1318701D3*
D26*
X5367441Y1082480D3*
D25*
Y1554921D3*
X5847756Y1562795D3*
Y1082480D3*
D27*
X3357451Y4649951D3*
X3457451D3*
X3717451D3*
X3817451D3*
Y3919951D3*
X3717451D3*
X3357451D3*
X3457451D3*
D28*
X4400777Y2244213D3*
D29*
Y2144213D3*
Y2044213D3*
Y1944213D3*
Y1844213D3*
Y1744213D3*
Y1644213D3*
Y1544213D3*
Y1444213D3*
X4700777D3*
Y1544213D3*
Y1644213D3*
Y1744213D3*
Y1844213D3*
Y1944213D3*
Y2044213D3*
Y2144213D3*
Y2244213D3*
D28*
X2863701Y4799951D3*
D29*
Y4899951D3*
Y4999951D3*
Y5099951D3*
Y5199951D3*
Y5299951D3*
Y5399951D3*
Y5499951D3*
X2563701D3*
Y5399951D3*
Y5299951D3*
Y5199951D3*
Y5099951D3*
Y4999951D3*
Y4899951D3*
Y4799951D3*
D28*
X2863701Y1943701D3*
D29*
Y2043701D3*
Y2143701D3*
Y2243701D3*
Y2343701D3*
Y2443701D3*
Y2543701D3*
Y2643701D3*
X2563701D3*
Y2543701D3*
Y2443701D3*
Y2343701D3*
Y2243701D3*
Y2143701D3*
Y2043701D3*
Y1943701D3*
D28*
X4094951Y943701D3*
D29*
Y1043701D3*
Y1143701D3*
Y1243701D3*
Y1343701D3*
Y1443701D3*
Y1543701D3*
Y1643701D3*
Y1743701D3*
Y1843701D3*
Y1943701D3*
Y2043701D3*
Y2143701D3*
Y2243701D3*
Y2343701D3*
Y2443701D3*
Y2543701D3*
Y2643701D3*
Y2743701D3*
Y2843701D3*
X3494951D3*
Y2743701D3*
Y2643701D3*
Y2543701D3*
Y2443701D3*
Y2343701D3*
Y2243701D3*
Y2143701D3*
Y2043701D3*
Y1943701D3*
Y1843701D3*
Y1743701D3*
Y1643701D3*
Y1543701D3*
Y1443701D3*
Y1343701D3*
Y1243701D3*
Y1143701D3*
Y1043701D3*
Y943701D3*
D31*
X3901201Y5449951D3*
D32*
X4001201D3*
X4101201D3*
D35*
X4282450Y3393690D3*
Y3293690D3*
D28*
X1763701Y5968701D3*
D36*
Y5868701D3*
X2063701D3*
Y5968701D3*
D28*
X1763701Y5643701D3*
D36*
Y5543701D3*
X2063701D3*
Y5643701D3*
D28*
X1763701Y5318701D3*
D36*
Y5218701D3*
X2063701D3*
Y5318701D3*
D28*
X1763701Y4993701D3*
D36*
Y4893701D3*
X2063701D3*
Y4993701D3*
D28*
X1763701Y4543701D3*
D36*
Y4443701D3*
X2063701D3*
Y4543701D3*
D28*
X1763701Y4218701D3*
D36*
Y4118701D3*
X2063701D3*
Y4218701D3*
D28*
X1763701Y3893701D3*
D36*
Y3793701D3*
X2063701D3*
Y3893701D3*
D28*
X1763701Y3568701D3*
D36*
Y3468701D3*
X2063701D3*
Y3568701D3*
D28*
X1763701Y3118701D3*
D36*
Y3018701D3*
X2063701D3*
Y3118701D3*
D28*
X1763701Y2793701D3*
D36*
Y2693701D3*
X2063701D3*
Y2793701D3*
D28*
X1763701Y2468701D3*
D36*
Y2368701D3*
X2063701D3*
Y2468701D3*
D28*
X1763701Y2143701D3*
D36*
Y2043701D3*
X2063701D3*
Y2143701D3*
D28*
X1763701Y1681201D3*
D36*
Y1581201D3*
X2063701D3*
Y1681201D3*
D28*
X1763701Y1343701D3*
D36*
Y1243701D3*
X2063701D3*
Y1343701D3*
D28*
X1763701Y1006201D3*
D36*
Y906201D3*
X2063701D3*
Y1006201D3*
D28*
X1763701Y668701D3*
D36*
Y568701D3*
X2063701D3*
Y668701D3*
D37*
X551181Y5706201D3*
D38*
Y5509350D3*
Y5312500D3*
Y5115650D3*
Y4918799D3*
Y4721949D3*
Y4525098D3*
Y4328248D3*
Y4131398D3*
Y3934547D3*
D37*
X563701Y2843701D3*
D38*
Y2646850D3*
Y2450000D3*
Y2253150D3*
Y2056299D3*
Y1859449D3*
Y1662598D3*
Y1465748D3*
Y1268898D3*
Y1072047D3*
D39*
X3388701Y699951D3*
D27*
X3288701D3*
X3188701D3*
X3088701D3*
X2988701D3*
X2888701D3*
X2788701D3*
D25*
X551181Y6181201D3*
Y6378051D3*
X6588701Y6068701D3*
X6588696Y5871865D3*
Y5675014D3*
X6588701Y5418701D3*
X6588696Y5221865D3*
Y5025014D3*
X6588701Y4768701D3*
X6588696Y4571865D3*
Y4375014D3*
X6588701Y4118701D3*
X6588696Y3921865D3*
Y3725014D3*
X6588701Y3468701D3*
X6588696Y3271865D3*
Y3075014D3*
X6588701Y2818701D3*
X6588696Y2621865D3*
Y2425014D3*
X6588701Y2168701D3*
X6588696Y1971865D3*
Y1775014D3*
X6588701Y1518701D3*
X6588696Y1321865D3*
Y1125014D3*
D16*
X2294961Y843701D3*
Y1518701D3*
Y1931201D3*
Y2268701D3*
Y2956201D3*
Y3731201D3*
Y4381201D3*
Y4793701D3*
Y5118701D3*
Y5818701D3*
X3351201Y3331201D3*
X3351181Y1743701D3*
Y843701D3*
M02*
