G04 DipTrace 3.0.0.1*
G04 Нижний.gbr*
%MOMM*%
G04 #@! TF.FileFunction,Copper,L2,Bot*
G04 #@! TF.Part,Single*
G04 #@! TA.AperFunction,Conductor*
%ADD13C,0.5*%
%ADD14C,0.4*%
G04 #@! TA.AperFunction,CopperBalancing*
%ADD15C,0.635*%
%ADD16C,0.33*%
%ADD17C,1.6*%
G04 #@! TA.AperFunction,Nonconductor*
%ADD18C,0.1*%
%ADD19R,1.2X1.8*%
%ADD20R,2.0X3.0*%
%ADD21R,1.8X1.2*%
G04 #@! TA.AperFunction,ComponentPad*
%ADD22C,2.0*%
%ADD23R,3.0X2.0*%
G04 #@! TA.AperFunction,ComponentPad*
%ADD24R,1.8X1.8*%
%ADD25C,1.8*%
%ADD26R,2.0X4.0*%
G04 #@! TA.AperFunction,ComponentPad*
%ADD27R,1.52X1.52*%
%ADD28C,1.52*%
%ADD29R,1.5X1.5*%
%ADD30C,1.5*%
%ADD31R,2.0X0.6*%
G04 #@! TA.AperFunction,ComponentPad*
%ADD32C,1.7*%
%ADD33C,2.5*%
%ADD34R,2.0X2.0*%
%ADD35C,2.0*%
%ADD36C,1.5*%
%FSLAX35Y35*%
G04*
G71*
G90*
G75*
G01*
G04 Bottom*
%LPD*%
X4930010Y2238250D2*
D13*
X4628383D1*
X4215633Y1825500D1*
Y1392250D1*
X4152133D1*
X3727760Y1396870D2*
X4147513D1*
X4152133Y1392250D1*
X4930010Y2492250D2*
X4501383D1*
X4152133D1*
X3711883D2*
X4152133D1*
X5914260Y2428750D2*
D14*
Y2460500D1*
X5882510Y2492250D1*
X5692010D1*
X5910010Y2143000D2*
Y2424500D1*
X5914260Y2428750D1*
X5199963Y1349343D2*
X5073193D1*
X4930010Y1492527D1*
Y1730250D1*
X7187637Y2873250D2*
X7643133D1*
X7708133Y2808250D1*
X7454200Y2480630D2*
X7648953D1*
X7692293Y2523970D1*
Y2792410D1*
X7708133Y2808250D1*
X7914500Y2480630D2*
X7454200D1*
X7464200Y4265770D2*
Y4254163D1*
X7924500D1*
Y4265770D1*
X7187637Y3762250D2*
X7390860D1*
X7485940Y3857330D1*
Y4244030D1*
X7464200Y4265770D1*
X7924500D2*
Y4105410D1*
X7692293Y3873203D1*
Y3857330D1*
X7692300Y2492223D2*
X7692293Y2523970D1*
X7924500Y4254163D2*
X8216113D1*
X8231987Y4270037D1*
X8262160D1*
X7708133Y3508250D2*
X7187637D1*
X10184633Y1666750D2*
Y3142803D1*
X9327247Y4000190D1*
X9200260D1*
X8263573D1*
X8057380Y3793997D1*
X8597137D1*
X8920883Y3470250D1*
X8946383D1*
X8597133Y3793997D2*
X8047760D1*
X8041507D1*
X7755760Y3508250D1*
X7708133D1*
X7187637Y3254250D2*
X7057253D1*
X7025613Y3285890D1*
Y3476370D1*
X7057493Y3508250D1*
X7187637D1*
X7914500Y2190630D2*
X7454200D1*
X10184633Y1666750D2*
Y1444810D1*
X10073293Y1333470D1*
X8946287D1*
X8803427Y1476330D1*
Y1698557D1*
Y1984277D1*
X8597073Y2190630D1*
X7914500D1*
X7187637Y2746250D2*
Y2190630D1*
X7454200D1*
X7464200Y4555770D2*
Y4698617D1*
X7924500D1*
Y4555770D1*
X7464200Y4698617D2*
X7168473D1*
Y3908413D1*
X7187637Y3889250D1*
X7924500Y4698617D2*
X8597073D1*
X8962160Y4333530D1*
Y4270037D1*
X8930413D1*
X9200260Y4000190D1*
X8962160Y4270037D2*
D3*
X6962090Y1698557D2*
X8803427D1*
X7187637Y3000250D2*
X8297133D1*
Y3000247D1*
X7187637Y3635250D2*
X6978140D1*
X6946247Y3603357D1*
Y3047790D1*
X6993867Y3000170D1*
X7187557D1*
X7187637Y3000250D1*
Y3381250D2*
X7374757D1*
X7422383Y3333623D1*
Y3295580D1*
Y3174873D1*
X7374760Y3127250D1*
X7187637D1*
X7422383Y3295580D2*
X8290837D1*
X8297133Y3301877D1*
X8597133D2*
X9152527D1*
X9724260Y2730143D1*
Y1666763D1*
X9684670D1*
X9152760Y3793997D2*
X9152527Y3301877D1*
X8597133Y3000247D2*
X8866843D1*
X8946287Y2920803D1*
Y2365350D1*
X8962260Y2349377D1*
X8978130D1*
X9184670Y2142837D1*
Y1666763D1*
X8946383Y2365250D2*
X8946287Y2365350D1*
X6247637Y3254250D2*
X5977760D1*
X5959043D1*
X5692010D1*
X5977760D2*
X6104760Y3381250D1*
X6247637D1*
Y3127250D2*
X6025387D1*
X5898387Y3000250D1*
X5692010D1*
X6247637Y3508250D2*
X5692010D1*
X4930010Y2746250D2*
X4501383D1*
Y2746243D1*
X4898257Y4250120D2*
Y4270250D1*
X5247510D1*
Y4333747D1*
X5231633Y4349623D1*
X5279260Y4397250D1*
X5246010D1*
Y4365500D1*
X4310883Y4250120D2*
X4596633D1*
X4898257D1*
X6247637Y3635250D2*
X5850760D1*
Y3889250D1*
X5660260Y4079750D1*
X5469760D1*
X5246010Y4303500D1*
Y4365500D1*
X4501383Y2746243D2*
X4485517D1*
X3882260Y3349500D1*
X3533007D1*
X2167760Y4714747D1*
Y4952877D1*
X2199510Y4984627D1*
X3612377D1*
X3660010Y4936993D1*
Y4778250D1*
Y4730620D1*
X4140510Y4250120D1*
X4310883D1*
X5850760Y3635250D2*
X5533260D1*
X5453883Y3555873D1*
Y2698627D1*
X5533260Y2619250D1*
X6025383D1*
Y2635127D1*
Y2746250D1*
X6152383Y2873250D1*
X6247637D1*
X6025383Y2635127D2*
X6214260Y2446250D1*
Y2428750D1*
X5453963Y1349343D2*
X5930353D1*
Y1365217D1*
X5916073D1*
X4310883Y4540120D2*
X4596633D1*
X4898257D1*
Y4555997D1*
X4930007D1*
X5025257Y4651247D1*
X5723763D1*
X5977760Y4397250D1*
X5946010Y4365500D1*
X6247637Y3889250D2*
X6438133D1*
Y3762247D1*
Y3000250D1*
X6247637D1*
X6438133D2*
Y2746250D1*
X6247637D1*
Y3762250D2*
Y3889250D1*
Y3000250D2*
X6136510D1*
X5882510Y2746250D1*
X5692010D1*
X5977760Y4397250D2*
X6438300D1*
Y3889250D1*
X3437760Y1396870D2*
Y2492250D1*
X3421883D1*
X4310883Y4540120D2*
X4152140D1*
X3914010Y4778250D1*
X3421883Y2492250D2*
Y3254250D1*
X2009010Y4667123D1*
Y5016377D1*
X2088383Y5095750D1*
X3850510D1*
X3914010Y5032250D1*
Y4778250D1*
X6438133Y2746250D2*
Y2143000D1*
X6200010D1*
X6247637Y3762250D2*
X6438133Y3762247D1*
X6216073Y1365217D2*
X6438133D1*
Y1698557D1*
Y2143000D1*
X3437760Y1396870D2*
Y1063623D1*
X6438300D1*
Y1365217D1*
X6454090Y1698557D2*
X6438133D1*
X4501383Y4016243D2*
D13*
Y4032127D1*
X4120380D1*
X3406010Y4746497D1*
Y4778250D1*
X5692010Y3762250D2*
Y3778123D1*
X5549137Y3920997D1*
X4739510D1*
X4644263Y4016243D1*
X4501383D1*
Y3762243D2*
Y3778127D1*
X4374383Y3905127D1*
X4009257D1*
X3152010Y4762373D1*
Y4778250D1*
X4930010Y3762250D2*
X4501383D1*
Y3762243D1*
Y3508243D2*
X4231500Y3778127D1*
X3882253D1*
X2898010Y4762370D1*
Y4778250D1*
X4930010Y3508250D2*
X4501383D1*
Y3508243D1*
Y3254243D2*
X4485513D1*
X4088633Y3651123D1*
X3755260D1*
X2644010Y4762373D1*
Y4778250D1*
X4930010Y3254250D2*
X4501383D1*
Y3254243D1*
Y3000243D2*
X4485517D1*
X3961637Y3524123D1*
X3612383D1*
X2390010Y4746497D1*
Y4778250D1*
X4930010Y3000250D2*
X4501383D1*
Y3000243D1*
X1087213Y5191353D2*
D15*
X6479950D1*
X1087213Y5128187D2*
X6479950D1*
X1087213Y5065020D2*
X1306687D1*
X1663673D2*
X2135163D1*
X3676823D2*
X6479950D1*
X1087213Y5001853D2*
X1246163D1*
X1723207D2*
X2074637D1*
X3741313D2*
X6479950D1*
X1087213Y4938687D2*
X1213420D1*
X1755947D2*
X2061740D1*
X4099493D2*
X6479950D1*
X1087213Y4875520D2*
X1198537D1*
X1771823D2*
X2061740D1*
X4099493D2*
X6479950D1*
X1087213Y4812353D2*
X1198537D1*
X1771823D2*
X2061740D1*
X4099493D2*
X6479950D1*
X1087213Y4749187D2*
X1212427D1*
X1757933D2*
X2061740D1*
X4099493D2*
X6479950D1*
X1087213Y4686020D2*
X1243187D1*
X1726183D2*
X2066700D1*
X4099493D2*
X6479950D1*
X1087213Y4622853D2*
X1300733D1*
X1669627D2*
X2113333D1*
X4099493D2*
X4134550D1*
X5073823D2*
X6479950D1*
X1087213Y4559687D2*
X2175840D1*
X3977457D2*
X4135413D1*
X5432003D2*
X5760613D1*
X6131493D2*
X6479950D1*
X1087213Y4496520D2*
X2239340D1*
X4040957D2*
X4135413D1*
X5432003D2*
X5760613D1*
X6131493D2*
X6479950D1*
X1087213Y4433353D2*
X2302840D1*
X5432003D2*
X5760613D1*
X6131493D2*
X6479950D1*
X1087213Y4370187D2*
X2365350D1*
X5432003D2*
X5760613D1*
X6131493D2*
X6479950D1*
X1087213Y4307020D2*
X2428850D1*
X5432003D2*
X5760613D1*
X6131493D2*
X6479950D1*
X1087213Y4243853D2*
X2492350D1*
X5452837D2*
X5760613D1*
X6131493D2*
X6479950D1*
X1087213Y4180687D2*
X2554857D1*
X5515347D2*
X5760613D1*
X6131493D2*
X6479950D1*
X1087213Y4117520D2*
X2618357D1*
X5769347D2*
X6479950D1*
X1087213Y4054353D2*
X2681857D1*
X5832847D2*
X6479950D1*
X1087213Y3991187D2*
X2744363D1*
X5895353D2*
X6062240D1*
X6433120D2*
X6479950D1*
X1087213Y3928020D2*
X2807863D1*
X5948933D2*
X6062240D1*
X6433120D2*
X6479950D1*
X1087213Y3864853D2*
X2871363D1*
X5955877D2*
X6062240D1*
X6433120D2*
X6479950D1*
X1087213Y3801687D2*
X2933873D1*
X5085730D2*
X5514553D1*
X5955877D2*
X6062240D1*
X6433120D2*
X6479950D1*
X1087213Y3738520D2*
X2997373D1*
X5088707D2*
X5533403D1*
X5955877D2*
X6062240D1*
X6433120D2*
X6479950D1*
X1087213Y3675353D2*
X3060873D1*
X5063900D2*
X5426247D1*
X6433120D2*
X6479950D1*
X1087213Y3612187D2*
X3123380D1*
X5050010D2*
X5365723D1*
X6433120D2*
X6479950D1*
X1087213Y3549020D2*
X3186880D1*
X5084737D2*
X5347863D1*
X6433120D2*
X6479950D1*
X1087213Y3485853D2*
X3250380D1*
X5088707D2*
X5347863D1*
X6433120D2*
X6479950D1*
X1087213Y3422687D2*
X3312887D1*
X5064893D2*
X5347863D1*
X6433120D2*
X6479950D1*
X1087213Y3359520D2*
X3376387D1*
X5049017D2*
X5347863D1*
X6433120D2*
X6479950D1*
X1087213Y3296353D2*
X3439887D1*
X5084737D2*
X5347863D1*
X6433120D2*
X6479950D1*
X1087213Y3233187D2*
X3851647D1*
X5088707D2*
X5347863D1*
X6433120D2*
X6479950D1*
X1087213Y3170020D2*
X3915147D1*
X5065887D2*
X5347863D1*
X6433120D2*
X6479950D1*
X1087213Y3106853D2*
X3978647D1*
X5048027D2*
X5347863D1*
X6433120D2*
X6479950D1*
X1087213Y3043687D2*
X4041153D1*
X5084737D2*
X5347863D1*
X6433120D2*
X6479950D1*
X1087213Y2980520D2*
X4104653D1*
X5089697D2*
X5347863D1*
X6433120D2*
X6479950D1*
X1087213Y2917353D2*
X4168153D1*
X5066877D2*
X5347863D1*
X6433120D2*
X6479950D1*
X1087213Y2854187D2*
X4230663D1*
X5047033D2*
X5347863D1*
X6433120D2*
X6479950D1*
X1087213Y2791020D2*
X4294163D1*
X5083743D2*
X5347863D1*
X6433120D2*
X6479950D1*
X1087213Y2727853D2*
X3966740D1*
X5089697D2*
X5347863D1*
X6433120D2*
X6479950D1*
X1087213Y2664687D2*
X3966740D1*
X5066877D2*
X5353817D1*
X6433120D2*
X6479950D1*
X1087213Y2601520D2*
X3276177D1*
X3857400D2*
X3966740D1*
X5045050D2*
X5404420D1*
X6205910D2*
X6479950D1*
X1087213Y2538353D2*
X3276177D1*
X5083743D2*
X5468913D1*
X6359697D2*
X6479950D1*
X1087213Y2475187D2*
X3276177D1*
X5089697D2*
X5532413D1*
X6359697D2*
X6479950D1*
X1087213Y2412020D2*
X3276177D1*
X5067870D2*
X5554240D1*
X6359697D2*
X6479950D1*
X1087213Y2348853D2*
X3276177D1*
X3857400D2*
X3966740D1*
X4337620D2*
X4816053D1*
X5044057D2*
X5595913D1*
X6359697D2*
X6479950D1*
X1087213Y2285687D2*
X3966740D1*
X4337620D2*
X4522363D1*
X5082753D2*
X5551263D1*
X6359697D2*
X6479950D1*
X1087213Y2222520D2*
X3966740D1*
X4337620D2*
X4458863D1*
X5089697D2*
X5544317D1*
X6345807D2*
X6479950D1*
X1087213Y2159353D2*
X4395363D1*
X5068863D2*
X5567137D1*
X6345807D2*
X6479950D1*
X1087213Y2096187D2*
X4332857D1*
X4640237D2*
X4835897D1*
X5024213D2*
X5597897D1*
X6345807D2*
X6479950D1*
X1087213Y2033020D2*
X4269357D1*
X4576737D2*
X4790257D1*
X5069853D2*
X5552257D1*
X6345807D2*
X6479950D1*
X1087213Y1969853D2*
X4205857D1*
X4514230D2*
X4782317D1*
X5077790D2*
X5544317D1*
X5839790D2*
X6479950D1*
X1087213Y1906687D2*
X4143350D1*
X4450730D2*
X4804147D1*
X5055963D2*
X5566147D1*
X5817963D2*
X6479950D1*
X1087213Y1843520D2*
X4106637D1*
X4387230D2*
X4819030D1*
X5041080D2*
X5543327D1*
X5840783D2*
X6342037D1*
X1087213Y1780353D2*
X4104653D1*
X4326707D2*
X4777357D1*
X5081760D2*
X5543327D1*
X5840783D2*
X6288460D1*
X1087213Y1717187D2*
X4104653D1*
X4326707D2*
X4770413D1*
X5089697D2*
X5543327D1*
X5840783D2*
X6269607D1*
X1087213Y1654020D2*
X3966740D1*
X4337620D2*
X4789263D1*
X5070847D2*
X5543327D1*
X5840783D2*
X6274567D1*
X1087213Y1590853D2*
X3966740D1*
X4337620D2*
X4823990D1*
X5035127D2*
X5543327D1*
X5840783D2*
X6304333D1*
X1087213Y1527687D2*
X3292053D1*
X3873277D2*
X3966740D1*
X4337620D2*
X4823990D1*
X5041080D2*
X5770537D1*
X6361683D2*
X6393630D1*
X1087213Y1464520D2*
X3292053D1*
X4337620D2*
X4827960D1*
X5577853D2*
X5770537D1*
X6361683D2*
X6479950D1*
X1087213Y1401353D2*
X3292053D1*
X4337620D2*
X4874590D1*
X6361683D2*
X6479950D1*
X1087213Y1338187D2*
X3292053D1*
X4337620D2*
X4938090D1*
X6361683D2*
X6479950D1*
X1087213Y1275020D2*
X3292053D1*
X3873277D2*
X3966740D1*
X4337620D2*
X5000600D1*
X6361683D2*
X6479950D1*
X1087213Y1211853D2*
X3966740D1*
X4337620D2*
X5103787D1*
X5296073D2*
X5357787D1*
X5550073D2*
X5770537D1*
X6361683D2*
X6479950D1*
X1087213Y1148687D2*
X3966740D1*
X4337620D2*
X6479950D1*
X1087213Y1085520D2*
X6479950D1*
X6067070Y2312290D2*
X6074810D1*
X6074970Y2445000D1*
X6053550Y2439290D1*
Y2259460D1*
X6048590D1*
X6049300Y2026540D1*
Y1973710D1*
X5833997D1*
X5830773Y1952763D1*
X5820363Y1922837D1*
X5803593Y1895957D1*
X5780453Y1872920D1*
X5834300Y1872540D1*
Y1587960D1*
X5549720D1*
Y1872540D1*
X5604290D1*
X5582007Y1893997D1*
X5564763Y1920577D1*
X5553827Y1950313D1*
X5549743Y1981733D1*
X5552713Y2013277D1*
X5562590Y2043383D1*
X5578883Y2070557D1*
X5600787Y2093450D1*
X5628140Y2111280D1*
X5604707Y2125890D1*
X5582007Y2147997D1*
X5564763Y2174577D1*
X5553827Y2204313D1*
X5549743Y2235733D1*
X5552713Y2267277D1*
X5562590Y2297383D1*
X5578883Y2324557D1*
X5600787Y2347450D1*
X5616477Y2357830D1*
X5593467Y2373530D1*
X5571287Y2396170D1*
X5554203Y2422863D1*
X5542933Y2452487D1*
X5537953Y2483787D1*
X5540717Y2520240D1*
X5502047Y2524993D1*
X5473313Y2540290D1*
X5463050Y2549040D1*
X5383673Y2628417D1*
X5365163Y2654047D1*
X5355660Y2685183D1*
X5354593Y2698627D1*
Y3555873D1*
X5359627Y3587087D1*
X5374923Y3615820D1*
X5383673Y3626083D1*
X5463050Y3705460D1*
X5488680Y3723970D1*
X5519817Y3733473D1*
X5533260Y3734540D1*
X5540207D1*
X5537953Y3753787D1*
X5539330Y3782477D1*
X5505310Y3817333D1*
X5073880Y3816707D1*
X5083373Y3779150D1*
X5084300Y3762250D1*
X5081043Y3730723D1*
X5071417Y3700527D1*
X5055820Y3672937D1*
X5034917Y3649113D1*
X5016710Y3635423D1*
X5045283Y3610807D1*
X5063807Y3585090D1*
X5076683Y3556130D1*
X5083373Y3525150D1*
X5084300Y3508250D1*
X5081043Y3476723D1*
X5071417Y3446527D1*
X5055820Y3418937D1*
X5034917Y3395113D1*
X5016710Y3381423D1*
X5045283Y3356807D1*
X5063807Y3331090D1*
X5076683Y3302130D1*
X5083373Y3271150D1*
X5084300Y3254250D1*
X5081043Y3222723D1*
X5071417Y3192527D1*
X5055820Y3164937D1*
X5034917Y3141113D1*
X5016710Y3127423D1*
X5045283Y3102807D1*
X5063807Y3077090D1*
X5076683Y3048130D1*
X5083373Y3017150D1*
X5084300Y3000250D1*
X5081043Y2968723D1*
X5071417Y2938527D1*
X5055820Y2910937D1*
X5034917Y2887113D1*
X5016710Y2873423D1*
X5045283Y2848807D1*
X5063807Y2823090D1*
X5076683Y2794130D1*
X5083373Y2763150D1*
X5084300Y2746250D1*
X5081043Y2714723D1*
X5071417Y2684527D1*
X5055820Y2656937D1*
X5034917Y2633113D1*
X5016710Y2619423D1*
X5045283Y2594807D1*
X5063807Y2569090D1*
X5076683Y2540130D1*
X5083373Y2509150D1*
X5084300Y2492250D1*
X5081043Y2460723D1*
X5071417Y2430527D1*
X5055820Y2402937D1*
X5034917Y2379113D1*
X5016710Y2365423D1*
X5045283Y2340807D1*
X5063807Y2315090D1*
X5076683Y2286130D1*
X5083373Y2255150D1*
X5084300Y2238250D1*
X5081043Y2206723D1*
X5071417Y2176527D1*
X5055820Y2148937D1*
X5034917Y2125113D1*
X5006897Y2104800D1*
X5038400Y2076437D1*
X5056110Y2050167D1*
X5067573Y2020627D1*
X5072300Y1984250D1*
X5068773Y1952763D1*
X5058363Y1922837D1*
X5041593Y1895957D1*
X5019287Y1873453D1*
X5005087Y1864417D1*
X5021893Y1854197D1*
X5045283Y1832807D1*
X5063807Y1807090D1*
X5076683Y1778130D1*
X5083373Y1747150D1*
X5084300Y1730250D1*
X5081043Y1698723D1*
X5071417Y1668527D1*
X5055820Y1640937D1*
X5029377Y1612947D1*
X5029300Y1532803D1*
X5090723Y1472230D1*
X5127080Y1496500D1*
X5156700Y1507790D1*
X5187940Y1513180D1*
X5219633Y1512470D1*
X5250600Y1505690D1*
X5279687Y1493083D1*
X5305810Y1475130D1*
X5327307Y1453197D1*
X5354177Y1479730D1*
X5381080Y1496500D1*
X5410700Y1507790D1*
X5441940Y1513180D1*
X5473633Y1512470D1*
X5504600Y1505690D1*
X5533687Y1493083D1*
X5559810Y1475130D1*
X5584723Y1448353D1*
X5776590Y1448633D1*
X5776783Y1534507D1*
X6055363D1*
Y1195927D1*
X5776783D1*
Y1250497D1*
X5584080Y1250053D1*
X5571727Y1234620D1*
X5547503Y1214170D1*
X5519803Y1198753D1*
X5489660Y1188943D1*
X5458193Y1185103D1*
X5426573Y1187380D1*
X5395980Y1195687D1*
X5367553Y1209713D1*
X5342347Y1228940D1*
X5327223Y1245983D1*
X5317727Y1234620D1*
X5293503Y1214170D1*
X5265803Y1198753D1*
X5235660Y1188943D1*
X5204193Y1185103D1*
X5172573Y1187380D1*
X5141980Y1195687D1*
X5113553Y1209713D1*
X5088347Y1228940D1*
X5069277Y1250427D1*
X5053277Y1252070D1*
X5023710Y1263263D1*
X5002983Y1279133D1*
X4859800Y1422317D1*
X4841290Y1447947D1*
X4831787Y1479083D1*
X4830720Y1492527D1*
Y1612580D1*
X4809287Y1634170D1*
X4792203Y1660863D1*
X4780933Y1690487D1*
X4775953Y1721787D1*
X4777473Y1753447D1*
X4785430Y1784123D1*
X4799490Y1812530D1*
X4819057Y1837463D1*
X4843303Y1857873D1*
X4854640Y1863977D1*
X4842707Y1871890D1*
X4820007Y1893997D1*
X4802763Y1920577D1*
X4791827Y1950313D1*
X4787743Y1981733D1*
X4790713Y2013277D1*
X4800590Y2043383D1*
X4816883Y2070557D1*
X4838787Y2093450D1*
X4854477Y2103830D1*
X4831467Y2119530D1*
X4816910Y2134387D1*
X4671050Y2133960D1*
X4319767Y1782143D1*
X4319923Y1671710D1*
X4331423Y1671540D1*
Y1112960D1*
X3972843D1*
Y1292547D1*
X3866723Y1292580D1*
X3867050Y1227580D1*
X3588470D1*
Y1566160D1*
X3867050D1*
Y1501667D1*
X3972830Y1501160D1*
X3972843Y1671540D1*
X4110757D1*
X4111343Y1825500D1*
X4116140Y1856763D1*
X4135080Y1891740D1*
X4554640Y2311993D1*
X4580137Y2330710D1*
X4618263Y2342047D1*
X4815907Y2342540D1*
X4842547Y2365233D1*
X4816910Y2388387D1*
X4331720Y2387960D1*
X4331423Y2212960D1*
X3972843D1*
Y2388577D1*
X3851500Y2387960D1*
X3851173Y2322960D1*
X3572593D1*
Y2661540D1*
X3851173D1*
Y2597047D1*
X3972830Y2596540D1*
X3972843Y2771540D1*
X4319117D1*
X3840713Y3250630D1*
X3533007Y3250210D1*
X3501793Y3255243D1*
X3473060Y3270540D1*
X3462797Y3279290D1*
X2097550Y4644537D1*
X2079040Y4670167D1*
X2069537Y4701303D1*
X2068470Y4714747D1*
Y4952877D1*
X2073503Y4984090D1*
X2089237Y5013647D1*
X2129300Y5054837D1*
X2153317Y5072517D1*
X2182427Y5082300D1*
X2199510Y5083917D1*
X3612377D1*
X3643590Y5078883D1*
X3672323Y5063587D1*
X3682587Y5054837D1*
X3730220Y5007203D1*
X3749027Y4980630D1*
X3742877Y4991690D1*
X3755977Y4962060D1*
X3760120Y4957540D1*
X4093300D1*
Y4598960D1*
X3932273Y4598773D1*
X4141593Y4389410D1*
X4480173Y4388417D1*
X4586093Y4389410D1*
X4765923Y4388417D1*
X4792467Y4389410D1*
X5066720Y4390210D1*
Y4401123D1*
X4562723Y4400830D1*
X4141593D1*
Y4679410D1*
X5067547D1*
Y4594677D1*
X5425300Y4594790D1*
Y4264390D1*
X5510557Y4179370D1*
X5660260Y4179040D1*
X5691473Y4174007D1*
X5720207Y4158710D1*
X5730470Y4149960D1*
X5920970Y3959460D1*
X5939480Y3933830D1*
X5948983Y3902693D1*
X5950050Y3889250D1*
Y3735460D1*
X6068050Y3734540D1*
X6068347Y3970460D1*
Y3998540D1*
X6426927D1*
Y3525960D1*
Y3398960D1*
Y3271960D1*
Y3144960D1*
Y3017960D1*
Y2763960D1*
Y2636960D1*
X6163997D1*
X6202933Y2597993D1*
X6353550Y2598040D1*
Y2259460D1*
X6338667D1*
X6339300Y2172590D1*
Y1973710D1*
X6060720D1*
Y2312290D1*
X6067070D1*
X3288943Y2661540D2*
X3561173D1*
Y2322960D1*
X3282593D1*
Y2661540D1*
X3288943D1*
X5773070Y4594790D2*
X6125300D1*
Y4136210D1*
X5766720D1*
Y4594790D1*
X5773070D1*
X3304820Y1566160D2*
X3577050D1*
Y1227580D1*
X3298470D1*
Y1566160D1*
X3304820D1*
X6083133Y1534507D2*
X6355363D1*
Y1195927D1*
X6076783D1*
Y1534507D1*
X6083133D1*
X6485797Y1522103D2*
X6450053Y1519313D1*
X6418540Y1522843D1*
X6388143Y1531870D1*
X6359810Y1546107D1*
X6334430Y1565113D1*
X6312797Y1588297D1*
X6295583Y1614927D1*
X6283330Y1644170D1*
X6276423Y1675117D1*
X6275073Y1706797D1*
X6279327Y1738220D1*
X6289047Y1768400D1*
X6303933Y1796397D1*
X6323520Y1821333D1*
X6347190Y1842430D1*
X6374210Y1859027D1*
X6403730Y1870603D1*
X6434827Y1876800D1*
X6466530Y1877420D1*
X6486013Y1874987D1*
X6485917Y5214137D1*
X1081313Y5213960D1*
X1081173Y1072430D1*
X6486750Y1072290D1*
X6485947Y1387270D1*
Y1521217D1*
X1765383Y4810067D2*
X1760050Y4778783D1*
X1751237Y4748300D1*
X1739057Y4718997D1*
X1723663Y4691247D1*
X1705250Y4665403D1*
X1684050Y4641790D1*
X1660330Y4620710D1*
X1634397Y4602423D1*
X1606570Y4587167D1*
X1577207Y4575133D1*
X1546680Y4566473D1*
X1515370Y4561297D1*
X1483680Y4559670D1*
X1452007Y4561613D1*
X1420750Y4567100D1*
X1390310Y4576063D1*
X1361067Y4588390D1*
X1333397Y4603923D1*
X1307643Y4622463D1*
X1284137Y4643783D1*
X1263173Y4667603D1*
X1245017Y4693630D1*
X1229900Y4721533D1*
X1218013Y4750953D1*
X1209503Y4781527D1*
X1204483Y4812860D1*
X1203013Y4844560D1*
X1205113Y4876223D1*
X1210757Y4907450D1*
X1219873Y4937847D1*
X1232343Y4967027D1*
X1248013Y4994620D1*
X1266683Y5020280D1*
X1288120Y5043680D1*
X1312047Y5064527D1*
X1338163Y5082550D1*
X1366137Y5097530D1*
X1395620Y5109270D1*
X1426233Y5117627D1*
X1457590Y5122490D1*
X1489297Y5123803D1*
X1520950Y5121543D1*
X1552150Y5115747D1*
X1582500Y5106480D1*
X1611617Y5093863D1*
X1639133Y5078053D1*
X1664700Y5059257D1*
X1687993Y5037707D1*
X1708717Y5013677D1*
X1726613Y4987470D1*
X1741450Y4959420D1*
X1753047Y4929880D1*
X1761250Y4899227D1*
X1767167Y4841750D1*
X1765383Y4810067D1*
X6200010Y2143000D2*
D16*
Y1973833D1*
X6060843Y2143000D2*
X6339177D1*
X3421883Y2661417D2*
Y2323083D1*
X3282717Y2492250D2*
X3561050D1*
X5946010Y4594667D2*
Y4136333D1*
X5766843Y4365500D2*
X6125177D1*
X4898257Y4679287D2*
Y4400953D1*
X3437760Y1566037D2*
Y1227703D1*
X3298593Y1396870D2*
X3576927D1*
X4596633Y4679287D2*
Y4400953D1*
X4310883Y4679287D2*
Y4400953D1*
X4141717Y4540120D2*
X4310883D1*
X6216073Y1534383D2*
Y1196050D1*
X6076907Y1365217D2*
X6355240D1*
X6247637Y2746250D2*
Y2637083D1*
Y2746250D2*
X6426803D1*
X6247637Y3000250D2*
X6426803D1*
X6068470Y3762250D2*
X6426803D1*
X6247637Y3998417D2*
Y3889250D1*
X6068470D2*
X6426803D1*
X3914010Y4957417D2*
Y4599083D1*
Y4778250D2*
X4093177D1*
X6454173Y1877723D2*
Y1519390D1*
X6275007Y1698557D2*
X6454173D1*
X7089867Y4998643D2*
D17*
X9529220D1*
X10142470D2*
X10437553D1*
X7089867Y4838977D2*
X9488597D1*
X10182053D2*
X10437553D1*
X7089867Y4679310D2*
X7230263D1*
X8159137D2*
X9531303D1*
X10139347D2*
X10437553D1*
X7089867Y4519643D2*
X7230263D1*
X8506013D2*
X8717763D1*
X9206013D2*
X9745887D1*
X9924763D2*
X10437553D1*
X7089867Y4359977D2*
X7230263D1*
X8506013D2*
X8717763D1*
X9206013D2*
X10437553D1*
X7089867Y4200310D2*
X7230263D1*
X8506013D2*
X8717763D1*
X9206013D2*
X10437553D1*
X8506013Y4040643D2*
X8717763D1*
X9206013D2*
X10437553D1*
X8264347Y3880977D2*
X8918803D1*
X9387263D2*
X10437553D1*
X8269553Y3721310D2*
X8918803D1*
X9387263D2*
X10437553D1*
X8002887Y3561643D2*
X8720887D1*
X9316430D2*
X10437553D1*
X9316430Y3401977D2*
X10437553D1*
X9437263Y3242310D2*
X10437553D1*
X9010180Y3082643D2*
X9145887D1*
X9597680D2*
X10437553D1*
X9110180Y2922977D2*
X9305263D1*
X9757053D2*
X10437553D1*
X8002887Y2763310D2*
X8782347D1*
X9110180D2*
X9465680D1*
X9885180D2*
X10437553D1*
X8148720Y2603643D2*
X8782347D1*
X9110180D2*
X9560470D1*
X9888303D2*
X10437553D1*
X7089867Y2443977D2*
X7219847D1*
X8148720D2*
X8715680D1*
X9176847D2*
X9560470D1*
X9888303D2*
X10437553D1*
X7089867Y2284310D2*
X7219847D1*
X8148720D2*
X8716720D1*
X9268513D2*
X9560470D1*
X9888303D2*
X10437553D1*
X7089867Y2124643D2*
X7219847D1*
X8148720D2*
X8977137D1*
X9348720D2*
X9560470D1*
X9888303D2*
X10437553D1*
X7089867Y1964977D2*
X9020887D1*
X9348720D2*
X9560470D1*
X9888303D2*
X10437553D1*
X7179970Y1805310D2*
X8956303D1*
X7199763Y1645643D2*
X8916720D1*
X7089867Y1485977D2*
X8991720D1*
X9377887D2*
X9491720D1*
X9877887D2*
X9991720D1*
X7089867Y1326310D2*
X10437553D1*
X7089867Y1166643D2*
X10437553D1*
X7672500Y2289973D2*
Y2002330D1*
X7235900D1*
Y2587123D1*
X7169270Y2587950D1*
X7073647D1*
X7073867Y1897683D1*
X7107470Y1874653D1*
X7131543Y1851640D1*
X7152013Y1825370D1*
X7168443Y1796400D1*
X7180483Y1765350D1*
X7187880Y1732877D1*
X7190473Y1698557D1*
X7188043Y1665340D1*
X7180810Y1632833D1*
X7168920Y1601723D1*
X7152633Y1572673D1*
X7132290Y1546303D1*
X7108330Y1523173D1*
X7072933Y1499487D1*
X7073867Y1271643D1*
Y1120600D1*
X7275550Y1121300D1*
X10453677D1*
X10453620Y5157917D1*
X9930493Y5158310D1*
X9974267Y5141470D1*
X10003753Y5125953D1*
X10031527Y5107547D1*
X10057307Y5086437D1*
X10080827Y5062833D1*
X10101847Y5036983D1*
X10120160Y5009150D1*
X10135573Y4979610D1*
X10147937Y4948667D1*
X10157117Y4916640D1*
X10163023Y4883847D1*
X10165717Y4841750D1*
X10164037Y4808473D1*
X10159013Y4775533D1*
X10150697Y4743270D1*
X10139170Y4712007D1*
X10124557Y4682067D1*
X10107000Y4653747D1*
X10086677Y4627340D1*
X10063800Y4603117D1*
X10038600Y4581320D1*
X10011330Y4562173D1*
X9982273Y4545873D1*
X9951720Y4532580D1*
X9919983Y4522433D1*
X9887387Y4515537D1*
X9854260Y4511957D1*
X9820940Y4511733D1*
X9787770Y4514867D1*
X9755083Y4521327D1*
X9723213Y4531043D1*
X9692483Y4543927D1*
X9663207Y4559837D1*
X9635683Y4578613D1*
X9610193Y4600070D1*
X9586993Y4623983D1*
X9566320Y4650113D1*
X9548383Y4678193D1*
X9533367Y4707937D1*
X9521423Y4739043D1*
X9512673Y4771193D1*
X9507207Y4804060D1*
X9505080Y4837310D1*
X9506313Y4870607D1*
X9510893Y4903610D1*
X9518777Y4935983D1*
X9529880Y4967397D1*
X9544090Y4997533D1*
X9561267Y5026087D1*
X9581230Y5052763D1*
X9603780Y5077290D1*
X9628687Y5099423D1*
X9655693Y5118937D1*
X9684530Y5135627D1*
X9741563Y5158250D1*
X7074243Y5158310D1*
X7073867Y4047683D1*
X7337880Y4047550D1*
X7337640Y4077123D1*
X7245900Y4077470D1*
X7246943Y4454070D1*
X7245900Y4467470D1*
Y4744070D1*
X7682500D1*
Y4402613D1*
X7706907Y4402463D1*
X7706200Y4487470D1*
Y4744070D1*
X8142800D1*
Y4548447D1*
X8490460Y4548337D1*
Y3991737D1*
X8142457Y3990687D1*
X8176713Y3970140D1*
X8206647Y3943693D1*
X8231263Y3912237D1*
X8249737Y3876820D1*
X8261447Y3838633D1*
X8266003Y3798950D1*
X8263520Y3760793D1*
X8253857Y3722033D1*
X8237297Y3685687D1*
X8214387Y3652963D1*
X8185900Y3624963D1*
X8152787Y3602623D1*
X8116160Y3586690D1*
X8077240Y3577697D1*
X8037337Y3575947D1*
X7997780Y3581497D1*
X7986433Y3583217D1*
Y3443843D1*
X8108840Y3443880D1*
X8108833Y3520177D1*
X8485433Y3519133D1*
X8508833Y3520177D1*
X8724457D1*
X8730653Y3544957D1*
X8746977Y3581417D1*
X8769407Y3614473D1*
X8797257Y3643117D1*
X8829673Y3666463D1*
X8865663Y3683803D1*
X8904123Y3694603D1*
X8934510Y3698217D1*
X8934460Y3991323D1*
X8733860Y3991737D1*
Y4548337D1*
X9190460D1*
Y4012297D1*
X9371060D1*
Y3575697D1*
X9301270D1*
X9300857Y3363717D1*
X9829123Y2835007D1*
X9849860Y2808997D1*
X9864273Y2779020D1*
X9871643Y2745543D1*
X9872560Y2563477D1*
Y1837437D1*
X9907813Y1786633D1*
X9921610Y1756317D1*
X9934543Y1704937D1*
X9941193Y1736730D1*
X9955227Y1774143D1*
X9974970Y1808883D1*
X9999930Y1840087D1*
X10029487Y1866977D1*
X10062903Y1888883D1*
X10099350Y1905263D1*
X10137920Y1915707D1*
X10177653Y1919953D1*
X10217560Y1917900D1*
X10256643Y1909597D1*
X10293940Y1895253D1*
X10328513Y1875220D1*
X10359507Y1850000D1*
X10386150Y1820217D1*
X10407777Y1786620D1*
X10423850Y1750037D1*
X10433970Y1711380D1*
X10437887Y1671613D1*
X10435743Y1633513D1*
X10427393Y1594437D1*
X10413000Y1557160D1*
X10392923Y1522610D1*
X10367663Y1491650D1*
X10337850Y1465043D1*
X10304223Y1443460D1*
X10267620Y1427430D1*
X10228953Y1417357D1*
X10189183Y1413490D1*
X10149300Y1415927D1*
X10110293Y1424603D1*
X10073140Y1439307D1*
X10038760Y1459673D1*
X10008010Y1485190D1*
X9981653Y1515223D1*
X9960350Y1549030D1*
X9944630Y1585767D1*
X9934653Y1625957D1*
X9929247Y1600863D1*
X9918487Y1569340D1*
X9903680Y1539503D1*
X9885087Y1511867D1*
X9863030Y1486907D1*
X9837887Y1465057D1*
X9810097Y1446697D1*
X9780133Y1432140D1*
X9748523Y1421643D1*
X9715807Y1415383D1*
X9682553Y1413473D1*
X9649337Y1415940D1*
X9616727Y1422747D1*
X9585297Y1433770D1*
X9555583Y1448823D1*
X9528103Y1467647D1*
X9503327Y1489913D1*
X9481690Y1515237D1*
X9463563Y1543180D1*
X9449260Y1573263D1*
X9439027Y1604960D1*
X9434723Y1628513D1*
X9429247Y1600863D1*
X9418487Y1569340D1*
X9403680Y1539503D1*
X9385087Y1511867D1*
X9363030Y1486907D1*
X9337887Y1465057D1*
X9310097Y1446697D1*
X9280133Y1432140D1*
X9248523Y1421643D1*
X9215807Y1415383D1*
X9182553Y1413473D1*
X9149337Y1415940D1*
X9116727Y1422747D1*
X9085297Y1433770D1*
X9055583Y1448823D1*
X9028103Y1467647D1*
X9003327Y1489913D1*
X8981690Y1515237D1*
X8963563Y1543180D1*
X8949260Y1573263D1*
X8939027Y1604960D1*
X8933040Y1637730D1*
X8931407Y1670997D1*
X8934150Y1704193D1*
X8941230Y1736743D1*
X8952517Y1768080D1*
X8967817Y1797667D1*
X8986870Y1824990D1*
X9009340Y1849577D1*
X9035723Y1871560D1*
X9036370Y2082387D1*
X8978897Y2138883D1*
X8938330Y2137093D1*
X8905223Y2140690D1*
X8872990Y2149070D1*
X8842320Y2162047D1*
X8813863Y2179350D1*
X8788227Y2200607D1*
X8765957Y2225370D1*
X8747523Y2253107D1*
X8733323Y2283233D1*
X8723660Y2315103D1*
X8718733Y2348040D1*
X8718650Y2381343D1*
X8723417Y2414307D1*
X8732927Y2446223D1*
X8746977Y2476417D1*
X8765273Y2504247D1*
X8797793Y2537803D1*
X8797987Y2851807D1*
X8785433Y2851880D1*
Y2781947D1*
X8408833Y2782990D1*
X8385433Y2781947D1*
X8108833D1*
Y2851740D1*
X7985673Y2851950D1*
X7986433Y2668840D1*
X8132800Y2668930D1*
X8131757Y2292330D1*
X8132800Y2278930D1*
Y2002330D1*
X7696200D1*
Y2288787D1*
X7673177Y2290187D1*
X9093937Y2539190D2*
X9115753Y2518333D1*
X9136223Y2492063D1*
X9152653Y2463093D1*
X9164693Y2432043D1*
X9172090Y2399570D1*
X9174457Y2362137D1*
X9289533Y2247700D1*
X9310270Y2221690D1*
X9324683Y2191713D1*
X9332053Y2158237D1*
X9332970Y1976170D1*
Y1873043D1*
X9368943Y1840557D1*
X9390153Y1814877D1*
X9407813Y1786633D1*
X9421610Y1756317D1*
X9434543Y1704937D1*
X9441230Y1736743D1*
X9452517Y1768080D1*
X9467817Y1797667D1*
X9486870Y1824990D1*
X9509340Y1849577D1*
X9534847Y1871003D1*
X9575210Y1894603D1*
X9575960Y2066763D1*
Y2667803D1*
X9383693Y2860980D1*
X9091277Y3153400D1*
X8785433Y3153510D1*
Y3148753D1*
X8866843Y3148547D1*
X8899897Y3144817D1*
X8931287Y3133813D1*
X8960170Y3115353D1*
X9051150Y3025667D1*
X9071887Y2999657D1*
X9086300Y2969680D1*
X9093670Y2936203D1*
X9094587Y2754137D1*
Y2538513D1*
X7454200Y2190630D2*
D16*
Y2002460D1*
X7236030Y2190630D2*
X7672370D1*
X7914500D2*
Y2002460D1*
X7696330Y2190630D2*
X8132670D1*
X7708133Y3508250D2*
X7986303D1*
X8047760Y3793997D2*
Y3575827D1*
Y3793997D2*
X8265930D1*
X8946383Y3698420D2*
Y3470250D1*
X7187637Y4047420D2*
Y3889250D1*
Y2746250D2*
Y2588080D1*
X10184633Y1919920D2*
Y1413580D1*
X9931463Y1666750D2*
X10437803D1*
X7464200Y4743940D2*
Y4555770D1*
X7246030D2*
X7682370D1*
X7924500Y4743940D2*
Y4555770D1*
X7706330D2*
X8142670D1*
X8962160Y4548207D2*
Y3991867D1*
X8733990Y4270037D2*
X9190330D1*
X6962173Y1698557D2*
X7190343D1*
D19*
X6200010Y2143000D3*
X5910010D3*
X3421883Y2492250D3*
X3711883D3*
D20*
X5946010Y4365500D3*
X5246010D3*
D21*
X4898257Y4540120D3*
Y4250120D3*
D19*
X3437760Y1396870D3*
X3727760D3*
D21*
X4596633Y4540120D3*
Y4250120D3*
D22*
X6454098Y1698557D3*
X6962098D3*
D21*
X7454200Y2190630D3*
Y2480630D3*
X7914500Y2190630D3*
Y2480630D3*
X4310883Y4540120D3*
Y4250120D3*
X7464200Y4555770D3*
Y4265770D3*
X7924500Y4555770D3*
Y4265770D3*
D23*
X7708133Y3508250D3*
Y2808250D3*
D20*
X8962160Y4270037D3*
X8262160D3*
D24*
X9152760Y3793997D3*
D25*
X8047760D3*
D24*
X8946383Y2365250D3*
D25*
Y3470250D3*
D26*
X4152133Y2492250D3*
Y1392250D3*
D19*
X6216073Y1365217D3*
X5916073D3*
X5914260Y2428750D3*
X6214260D3*
X8597133Y3000247D3*
X8297133D3*
X8597133Y3301877D3*
X8297133D3*
D27*
X4501383Y2746243D3*
D28*
Y3000243D3*
Y3254243D3*
Y3508243D3*
Y3762243D3*
Y4016243D3*
D29*
X5692010Y1730250D3*
D30*
Y1984250D3*
Y2238250D3*
Y2492250D3*
Y2746250D3*
Y3000250D3*
Y3254250D3*
Y3508250D3*
Y3762250D3*
X4930010D3*
Y3508250D3*
Y3254250D3*
Y3000250D3*
Y2746250D3*
Y2492250D3*
Y2238250D3*
Y1984250D3*
Y1730250D3*
D31*
X6247637Y2746250D3*
Y2873250D3*
Y3000250D3*
Y3127250D3*
Y3254250D3*
Y3381250D3*
Y3508250D3*
Y3635250D3*
Y3762250D3*
Y3889250D3*
X7187637D3*
Y3762250D3*
Y3635250D3*
Y3508250D3*
Y3381250D3*
Y3254250D3*
Y3127250D3*
Y3000250D3*
Y2873250D3*
Y2746250D3*
D32*
X5453972Y1349343D3*
X5199972D3*
D33*
X10184633Y1666750D3*
X9684670Y1666763D3*
X9184670D3*
D34*
X3914010Y4778250D3*
D35*
X3660010D3*
X3406010D3*
X3152010D3*
X2898010D3*
X2644010D3*
X2390010D3*
D36*
X7692293Y3857330D3*
X7692300Y2492223D3*
X1008883Y5286250D2*
D18*
X10597383D1*
Y1000000D1*
X1008883D1*
Y5286250D1*
M02*
