G04 DipTrace 3.0.0.1*
G04 Нижняямаркировка.gbr*
%MOMM*%
G04 #@! TF.FileFunction,Legend,Bot*
G04 #@! TF.Part,Single*
%ADD10C,0.25*%
%FSLAX35Y35*%
G04*
G71*
G90*
G75*
G01*
G04 BotSilk*
%LPD*%
X6100002Y2258016D2*
D10*
X6285030D1*
Y2028000D1*
X6100002D1*
X5825010Y2258016D2*
X6010038D1*
X5825010D2*
Y2028000D1*
X6010038D2*
X5825010D1*
X3521891Y2377234D2*
X3336863D1*
Y2607250D1*
X3521891D1*
X3796883Y2377234D2*
X3611855D1*
X3796883D2*
Y2607250D1*
X3611855D2*
X3796883D1*
X6096010Y4585500D2*
X5096010D1*
Y4145500D1*
X6096010D1*
Y4585500D1*
G36*
X5396010Y4565480D2*
D1*
Y4165520D1*
D1*
Y4565480D1*
G37*
G36*
X5496010Y4585500D2*
X5396010D1*
Y4145500D1*
X5496010D1*
Y4585500D1*
G37*
X4783241Y4440112D2*
D10*
Y4625140D1*
X5013257D1*
Y4440112D1*
X4783241Y4165120D2*
Y4350148D1*
Y4165120D2*
X5013257D1*
Y4350148D2*
Y4165120D1*
X3537768Y1281854D2*
X3352740D1*
Y1511870D1*
X3537768D1*
X3812760Y1281854D2*
X3627732D1*
X3812760D2*
Y1511870D1*
X3627732D2*
X3812760D1*
X4481617Y4440112D2*
Y4625140D1*
X4711633D1*
Y4440112D1*
X4481617Y4165120D2*
Y4350148D1*
Y4165120D2*
X4711633D1*
Y4350148D2*
Y4165120D1*
X7569216Y2290638D2*
Y2105610D1*
X7339200D1*
Y2290638D1*
X7569216Y2565630D2*
Y2380602D1*
Y2565630D2*
X7339200D1*
Y2380602D2*
Y2565630D1*
X8029516Y2290638D2*
Y2105610D1*
X7799500D1*
Y2290638D1*
X8029516Y2565630D2*
Y2380602D1*
Y2565630D2*
X7799500D1*
Y2380602D2*
Y2565630D1*
X4195867Y4440112D2*
Y4625140D1*
X4425883D1*
Y4440112D1*
X4195867Y4165120D2*
Y4350148D1*
Y4165120D2*
X4425883D1*
Y4350148D2*
Y4165120D1*
X7349184Y4455762D2*
Y4640790D1*
X7579200D1*
Y4455762D1*
X7349184Y4180770D2*
Y4365798D1*
Y4180770D2*
X7579200D1*
Y4365798D2*
Y4180770D1*
X7809484Y4455762D2*
Y4640790D1*
X8039500D1*
Y4455762D1*
X7809484Y4180770D2*
Y4365798D1*
Y4180770D2*
X8039500D1*
Y4365798D2*
Y4180770D1*
X7488133Y3658250D2*
Y2658250D1*
X7928133D1*
Y3658250D1*
X7488133D1*
G36*
X7508153Y2958250D2*
X7908113D1*
D1*
X7508153D1*
G37*
G36*
X7488133Y3058250D2*
X7928133D1*
Y2958250D1*
X7488133D1*
Y3058250D1*
G37*
X9112160Y4490037D2*
D10*
X8112160D1*
Y4050037D1*
X9112160D1*
Y4490037D1*
G36*
X8412160Y4470017D2*
D1*
Y4070057D1*
D1*
Y4470017D1*
G37*
G36*
X8512160Y4490037D2*
X8412160D1*
Y4050037D1*
X8512160D1*
Y4490037D1*
G37*
X8840555Y3653997D2*
D10*
Y3933997D1*
X8835415D2*
X8365105D1*
X8764740Y3653997D2*
Y3933997D1*
X8365105Y3653997D2*
Y3933997D1*
X8835415Y3653997D2*
X8365105D1*
X8806383Y2677455D2*
X9086383D1*
Y2682595D2*
Y3152905D1*
X8806383Y2753270D2*
X9086383D1*
X8806383Y3152905D2*
X9086383D1*
X8806383Y2682595D2*
Y3152905D1*
X4297133Y2522300D2*
X4402133D1*
Y1372250D1*
X3902133Y2522300D2*
Y1372250D1*
X4297133D2*
X4402133D1*
X3902133Y2522300D2*
X4007133D1*
X3902133Y1372250D2*
X4007133D1*
X6116034Y1480217D2*
X6301073D1*
Y1250217D1*
X6116034D1*
X5831073Y1480217D2*
X6016112D1*
X5831073D2*
Y1250217D1*
X6016112D2*
X5831073D1*
X6014299Y2313750D2*
X5829260D1*
Y2543750D1*
X6014299D1*
X6299260Y2313750D2*
X6114221D1*
X6299260D2*
Y2543750D1*
X6114221D2*
X6299260D1*
X8497094Y3115247D2*
X8682133D1*
Y2885247D1*
X8497094D1*
X8212133Y3115247D2*
X8397172D1*
X8212133D2*
Y2885247D1*
X8397172D2*
X8212133D1*
X8497094Y3416877D2*
X8682133D1*
Y3186877D1*
X8497094D1*
X8212133Y3416877D2*
X8397172D1*
X8212133D2*
Y3186877D1*
X8397172D2*
X8212133D1*
X6392623Y2677810D2*
Y3957690D1*
X7032619Y2677810D2*
Y3957690D1*
X6392623D2*
X7032619D1*
X6392623Y2677810D2*
X6632593D1*
X6792649D2*
X7032619D1*
X6632593D2*
G02X6792649Y2677810I80028J-164D01*
G01*
M02*
