G04 DipTrace 3.0.0.1*
G04 Верхний.gbr*
%MOMM*%
G04 #@! TF.FileFunction,Copper,L1,Top*
G04 #@! TF.Part,Single*
G04 #@! TA.AperFunction,Conductor*
%ADD14C,0.4*%
G04 #@! TA.AperFunction,ComponentPad*
%ADD22C,2.0*%
%ADD24R,1.8X1.8*%
%ADD25C,1.8*%
%ADD27R,1.52X1.52*%
%ADD28C,1.52*%
%ADD29R,1.5X1.5*%
%ADD30C,1.5*%
%ADD32C,1.7*%
%ADD33C,2.5*%
%ADD34R,2.0X2.0*%
%ADD35C,2.0*%
%ADD36C,1.5*%
%FSLAX35Y35*%
G04*
G71*
G90*
G75*
G01*
G04 Top*
%LPD*%
X7692293Y3857330D2*
D14*
Y2492223D1*
X7692300D1*
D22*
X6454098Y1698557D3*
X6962098D3*
D24*
X9152760Y3793997D3*
D25*
X8047760D3*
D24*
X8946383Y2365250D3*
D25*
Y3470250D3*
D27*
X4501383Y2746243D3*
D28*
Y3000243D3*
Y3254243D3*
Y3508243D3*
Y3762243D3*
Y4016243D3*
D29*
X5692010Y1730250D3*
D30*
Y1984250D3*
Y2238250D3*
Y2492250D3*
Y2746250D3*
Y3000250D3*
Y3254250D3*
Y3508250D3*
Y3762250D3*
X4930010D3*
Y3508250D3*
Y3254250D3*
Y3000250D3*
Y2746250D3*
Y2492250D3*
Y2238250D3*
Y1984250D3*
Y1730250D3*
D32*
X5453972Y1349343D3*
X5199972D3*
D33*
X10184633Y1666750D3*
X9684670Y1666763D3*
X9184670D3*
D34*
X3914010Y4778250D3*
D35*
X3660010D3*
X3406010D3*
X3152010D3*
X2898010D3*
X2644010D3*
X2390010D3*
D36*
X7692293Y3857330D3*
X7692300Y2492223D3*
M02*
