G04 DipTrace 3.0.0.1*
G04 Верхняямаска.gbr*
%MOMM*%
G04 #@! TF.FileFunction,Soldermask,Top*
G04 #@! TF.Part,Single*
%ADD32C,1.7*%
%ADD34R,2.0X2.0*%
%ADD35C,2.0*%
%ADD37C,3.0*%
%ADD44C,1.7*%
%ADD46C,2.2*%
%ADD47R,2.2X2.2*%
%ADD48C,2.7*%
%ADD50C,1.9*%
%ADD54R,1.7X1.7*%
%ADD56C,1.72*%
%ADD58R,1.72X1.72*%
%ADD66C,2.2*%
%FSLAX35Y35*%
G04*
G71*
G90*
G75*
G01*
G04 TopMask*
%LPD*%
D66*
X6454098Y1698557D3*
X6962098D3*
D34*
X9152760Y3793997D3*
D35*
X8047760D3*
D34*
X8946383Y2365250D3*
D35*
Y3470250D3*
D58*
X4501383Y2746243D3*
D56*
Y3000243D3*
Y3254243D3*
Y3508243D3*
Y3762243D3*
Y4016243D3*
D54*
X5692010Y1730250D3*
D32*
Y1984250D3*
Y2238250D3*
Y2492250D3*
Y2746250D3*
Y3000250D3*
Y3254250D3*
Y3508250D3*
Y3762250D3*
X4930010D3*
Y3508250D3*
Y3254250D3*
Y3000250D3*
Y2746250D3*
Y2492250D3*
Y2238250D3*
Y1984250D3*
Y1730250D3*
D50*
X5453972Y1349343D3*
X5199972D3*
D48*
X10184633Y1666750D3*
X9684670Y1666763D3*
X9184670D3*
D47*
X3914010Y4778250D3*
D46*
X3660010D3*
X3406010D3*
X3152010D3*
X2898010D3*
X2644010D3*
X2390010D3*
D37*
X1485083Y4841750D3*
X9835383D3*
D44*
X7692293Y3857330D3*
X7692300Y2492223D3*
M02*
