G04 DipTrace 3.0.0.1*
G04 Верхняямаркировка.gbr*
%MOMM*%
G04 #@! TF.FileFunction,Legend,Top*
G04 #@! TF.Part,Single*
%ADD10C,0.25*%
%FSLAX35Y35*%
G04*
G71*
G90*
G75*
G01*
G04 TopSilk*
%LPD*%
X6359070Y1809669D2*
D10*
G02X7057053Y1809669I348991J-591627D01*
G01*
X7072820Y1587445D2*
G02X6375002Y1571554I-363826J647125D01*
G01*
X6359070Y1809669D2*
G03X6375002Y1571554I71124J-114832D01*
G01*
X7057053Y1809669D2*
G02X7072820Y1587445I-76109J-117072D01*
G01*
X4374383Y2682870D2*
Y4079616D1*
X4628383Y2682870D2*
Y4079616D1*
X4374383Y2682870D2*
G03X4628383Y2682870I127000J-127D01*
G01*
Y4079616D2*
G03X4374383Y4079616I-127000J127D01*
G01*
X5050999Y1606250D2*
Y3886250D1*
X5571021D2*
X5050999D1*
X5571021Y1606250D2*
Y3886250D1*
Y1606250D2*
X5371020D1*
X5050999D2*
X5251000D1*
X5371020D2*
G03X5251000Y1606250I-60010J-46D01*
G01*
X5565087Y1476321D2*
G03X5565087Y1222319I-241141J-127001D01*
G01*
Y1476321D1*
X10432570Y1277063D2*
X8922570D1*
Y2177063D1*
X10432570D1*
Y1277063D1*
X10001918Y1667033D2*
X10002357Y1679589D1*
X10003673Y1692084D1*
X10005858Y1704457D1*
X10008902Y1716648D1*
X10012791Y1728597D1*
X10017505Y1740246D1*
X10023022Y1751538D1*
X10029314Y1762419D1*
X10036351Y1772835D1*
X10044099Y1782735D1*
X10052519Y1792072D1*
X10061572Y1800799D1*
X10071212Y1808875D1*
X10081393Y1816260D1*
X10092065Y1822918D1*
X10103176Y1828816D1*
X10114673Y1833926D1*
X10126498Y1838224D1*
X10138595Y1841687D1*
X10150904Y1844299D1*
X10163366Y1846047D1*
X10175920Y1846924D1*
X10188504D1*
X10201058Y1846047D1*
X10213520Y1844299D1*
X10225829Y1841687D1*
X10237926Y1838224D1*
X10249751Y1833926D1*
X10261248Y1828816D1*
X10272359Y1822918D1*
X10283031Y1816260D1*
X10293212Y1808875D1*
X10302852Y1800799D1*
X10311905Y1792072D1*
X10320325Y1782735D1*
X10328073Y1772835D1*
X10335110Y1762419D1*
X10341402Y1751538D1*
X10346919Y1740246D1*
X10351633Y1728597D1*
X10355522Y1716648D1*
X10358566Y1704457D1*
X10360751Y1692084D1*
X10362067Y1679589D1*
X10362506Y1667033D1*
X10362067Y1654477D1*
X10360751Y1641982D1*
X10358566Y1629609D1*
X10355522Y1617419D1*
X10351633Y1605470D1*
X10346919Y1593821D1*
X10341402Y1582528D1*
X10335110Y1571648D1*
X10328073Y1561232D1*
X10320325Y1551332D1*
X10311905Y1541995D1*
X10302852Y1533267D1*
X10293212Y1525191D1*
X10283031Y1517807D1*
X10272359Y1511149D1*
X10261248Y1505250D1*
X10249751Y1500140D1*
X10237926Y1495843D1*
X10225829Y1492380D1*
X10213520Y1489768D1*
X10201058Y1488019D1*
X10188504Y1487143D1*
X10175920D1*
X10163366Y1488019D1*
X10150904Y1489768D1*
X10138595Y1492380D1*
X10126498Y1495843D1*
X10114673Y1500140D1*
X10103176Y1505250D1*
X10092065Y1511149D1*
X10081393Y1517807D1*
X10071212Y1525191D1*
X10061572Y1533267D1*
X10052519Y1541995D1*
X10044099Y1551332D1*
X10036351Y1561232D1*
X10029314Y1571648D1*
X10023022Y1582528D1*
X10017505Y1593821D1*
X10012791Y1605470D1*
X10008902Y1617419D1*
X10005858Y1629609D1*
X10003673Y1641982D1*
X10002357Y1654477D1*
X10001918Y1667033D1*
X9501957D2*
X9502396Y1679589D1*
X9503712Y1692084D1*
X9505897Y1704457D1*
X9508941Y1716648D1*
X9512830Y1728597D1*
X9517544Y1740246D1*
X9523061Y1751538D1*
X9529353Y1762419D1*
X9536390Y1772835D1*
X9544138Y1782735D1*
X9552558Y1792072D1*
X9561611Y1800799D1*
X9571251Y1808875D1*
X9581432Y1816260D1*
X9592104Y1822918D1*
X9603215Y1828816D1*
X9614712Y1833926D1*
X9626537Y1838224D1*
X9638634Y1841687D1*
X9650943Y1844299D1*
X9663405Y1846047D1*
X9675959Y1846924D1*
X9688543D1*
X9701097Y1846047D1*
X9713559Y1844299D1*
X9725868Y1841687D1*
X9737965Y1838224D1*
X9749790Y1833926D1*
X9761287Y1828816D1*
X9772398Y1822918D1*
X9783070Y1816260D1*
X9793251Y1808875D1*
X9802891Y1800799D1*
X9811944Y1792072D1*
X9820364Y1782735D1*
X9828112Y1772835D1*
X9835149Y1762419D1*
X9841441Y1751538D1*
X9846958Y1740246D1*
X9851672Y1728597D1*
X9855561Y1716648D1*
X9858605Y1704457D1*
X9860790Y1692084D1*
X9862106Y1679589D1*
X9862545Y1667033D1*
X9862106Y1654477D1*
X9860790Y1641982D1*
X9858605Y1629609D1*
X9855561Y1617419D1*
X9851672Y1605470D1*
X9846958Y1593821D1*
X9841441Y1582528D1*
X9835149Y1571648D1*
X9828112Y1561232D1*
X9820364Y1551332D1*
X9811944Y1541995D1*
X9802891Y1533267D1*
X9793251Y1525191D1*
X9783070Y1517807D1*
X9772398Y1511149D1*
X9761287Y1505250D1*
X9749790Y1500140D1*
X9737965Y1495843D1*
X9725868Y1492380D1*
X9713559Y1489768D1*
X9701097Y1488019D1*
X9688543Y1487143D1*
X9675959D1*
X9663405Y1488019D1*
X9650943Y1489768D1*
X9638634Y1492380D1*
X9626537Y1495843D1*
X9614712Y1500140D1*
X9603215Y1505250D1*
X9592104Y1511149D1*
X9581432Y1517807D1*
X9571251Y1525191D1*
X9561611Y1533267D1*
X9552558Y1541995D1*
X9544138Y1551332D1*
X9536390Y1561232D1*
X9529353Y1571648D1*
X9523061Y1582528D1*
X9517544Y1593821D1*
X9512830Y1605470D1*
X9508941Y1617419D1*
X9505897Y1629609D1*
X9503712Y1641982D1*
X9502396Y1654477D1*
X9501957Y1667033D1*
X9001996D2*
X9002435Y1679589D1*
X9003751Y1692084D1*
X9005936Y1704457D1*
X9008980Y1716648D1*
X9012869Y1728597D1*
X9017583Y1740246D1*
X9023100Y1751538D1*
X9029392Y1762419D1*
X9036429Y1772835D1*
X9044177Y1782735D1*
X9052597Y1792072D1*
X9061650Y1800799D1*
X9071290Y1808875D1*
X9081471Y1816260D1*
X9092143Y1822918D1*
X9103254Y1828816D1*
X9114751Y1833926D1*
X9126576Y1838224D1*
X9138673Y1841687D1*
X9150982Y1844299D1*
X9163444Y1846047D1*
X9175998Y1846924D1*
X9188582D1*
X9201136Y1846047D1*
X9213598Y1844299D1*
X9225907Y1841687D1*
X9238004Y1838224D1*
X9249829Y1833926D1*
X9261326Y1828816D1*
X9272437Y1822918D1*
X9283109Y1816260D1*
X9293290Y1808875D1*
X9302930Y1800799D1*
X9311983Y1792072D1*
X9320403Y1782735D1*
X9328151Y1772835D1*
X9335188Y1762419D1*
X9341480Y1751538D1*
X9346997Y1740246D1*
X9351711Y1728597D1*
X9355600Y1716648D1*
X9358644Y1704457D1*
X9360829Y1692084D1*
X9362145Y1679589D1*
X9362584Y1667033D1*
X9362145Y1654477D1*
X9360829Y1641982D1*
X9358644Y1629609D1*
X9355600Y1617419D1*
X9351711Y1605470D1*
X9346997Y1593821D1*
X9341480Y1582528D1*
X9335188Y1571648D1*
X9328151Y1561232D1*
X9320403Y1551332D1*
X9311983Y1541995D1*
X9302930Y1533267D1*
X9293290Y1525191D1*
X9283109Y1517807D1*
X9272437Y1511149D1*
X9261326Y1505250D1*
X9249829Y1500140D1*
X9238004Y1495843D1*
X9225907Y1492380D1*
X9213598Y1489768D1*
X9201136Y1488019D1*
X9188582Y1487143D1*
X9175998D1*
X9163444Y1488019D1*
X9150982Y1489768D1*
X9138673Y1492380D1*
X9126576Y1495843D1*
X9114751Y1500140D1*
X9103254Y1505250D1*
X9092143Y1511149D1*
X9081471Y1517807D1*
X9071290Y1525191D1*
X9061650Y1533267D1*
X9052597Y1541995D1*
X9044177Y1551332D1*
X9036429Y1561232D1*
X9029392Y1571648D1*
X9023100Y1582528D1*
X9017583Y1593821D1*
X9012869Y1605470D1*
X9008980Y1617419D1*
X9005936Y1629609D1*
X9003751Y1641982D1*
X9002435Y1654477D1*
X9001996Y1667033D1*
X10432570Y1407023D2*
X8932536D1*
X9942575Y1287053D2*
Y2167073D1*
X9432497Y1287053D2*
Y2167073D1*
X2263010Y4905250D2*
Y4651250D1*
X4041010Y4905250D2*
X2263010D1*
X4041010D2*
Y4651250D1*
X2263010D1*
M02*
